<svg width="197" height="255" viewBox="0 0 197 255" xmlns="http://www.w3.org/2000/svg"><title>Clock</title><g fill="none" fill-rule="evenodd"><path d="M187 156.163c0 48.877-39.623 88.5-88.5 88.5S10 205.04 10 156.163s39.623-88.5 88.5-88.5 88.5 39.623 88.5 88.5" fill="#F1F1F2"/><path d="M98.5 90.443c-.1 0-.2.007-.3.008l.53.248v65.465l47.452 45.2c11.172-11.78 18.038-27.684 18.038-45.2 0-36.296-29.423-65.72-65.72-65.72" fill="#F45D6F"/><path fill="#0A434A" d="M145.837 201.726l-47.45-45.2.688-.726 47.45 45.2z"/><path d="M98.73 47.613c-11.197 0-20.306-9.11-20.306-20.307S87.534 7 98.73 7c11.197 0 20.307 9.11 20.307 20.306 0 11.198-9.11 20.307-20.306 20.307M98.73 0C83.675 0 71.425 12.25 71.425 27.306c0 15.057 12.25 27.307 27.306 27.307 15.057 0 27.307-12.25 27.307-27.307C126.037 12.25 113.787 0 98.73 0m78.402 77.66a8.5 8.5 0 0 0-12.02 0l-7.03 7.027a8.498 8.498 0 0 0 0 12.02 8.473 8.473 0 0 0 6.01 2.49c2.175 0 4.35-.83 6.01-2.488l7.03-7.03a8.497 8.497 0 0 0 0-12.02M33.036 99.07c2.173 0 4.35-.83 6.008-2.49a8.498 8.498 0 0 0 .002-12.02l-7.03-7.03c-3.318-3.318-8.7-3.32-12.018 0a8.498 8.498 0 0 0-.002 12.02l7.03 7.03a8.473 8.473 0 0 0 6.01 2.49" fill="#FFF"/><path d="M171.002 151.872h-15a3.5 3.5 0 0 0 0 7h15a3.5 3.5 0 0 0 0-7m-71.71 58.293a3.5 3.5 0 0 0-3.5 3.5v15a3.5 3.5 0 0 0 7 0v-15a3.5 3.5 0 0 0-3.5-3.5m-58.294-56.71h-15a3.5 3.5 0 0 0 0 7h15a3.5 3.5 0 0 0 0-7m60.21-54.794v-15a3.5 3.5 0 0 0-7 0v15a3.5 3.5 0 0 0 7 0" fill="#156E78"/><path d="M98.5 234.663c-43.285 0-78.5-35.215-78.5-78.5s35.215-78.5 78.5-78.5 78.5 35.215 78.5 78.5-35.215 78.5-78.5 78.5m10-176.495v-3.245h4.028c5.523 0 10-4.478 10-10 0-5.523-4.477-10-10-10h-29.81c-5.523 0-10 4.477-10 10 0 5.522 4.477 10 10 10H88.5v3.245C38.865 63.194 0 105.225 0 156.163c0 54.313 44.187 98.5 98.5 98.5s98.5-44.187 98.5-98.5c0-50.938-38.865-92.97-88.5-97.995" fill="#0A434A"/></g></svg>