<svg width="304" height="404" viewBox="0 0 304 404" xmlns="http://www.w3.org/2000/svg" xmlns:xlink="http://www.w3.org/1999/xlink"><title>ZenGirl</title><defs><path id="a" d="M0 .693h303.81V404H0"/></defs><g fill="none" fill-rule="evenodd"><g><mask id="b" fill="#fff"><use xlink:href="#a"/></mask><path d="M303.81 340.583C303.81 375.61 235.8 404 151.906 404S0 375.61 0 340.583c0-35.024 68.01-63.415 151.905-63.415s151.906 28.39 151.906 63.415" fill-opacity=".1" fill="#000" mask="url(#b)"/></g><path d="M181.208 277.168H124.46v-163.29h56.748v163.29z" fill="#FFF"/><path d="M149.822.777s-45.327.753-57.264 50.192c-8.7 36.027-5.62 75.43 2.805 89.007 11.918 19.203 99.907 14.835 114.778.29 15.103-14.77 22.29-143.32-60.318-139.49" fill="#EE4036"/><path d="M283.36 238.98c-.938-8.718-6.885-15.87-15.908-19.13-20.956-7.57-48.97.87-85.647 25.806-11.575 7.87-22.04 16.054-29.9 22.538-7.862-6.484-18.325-14.668-29.9-22.538C85.33 220.72 57.313 212.28 36.36 219.85c-9.025 3.26-14.972 10.412-15.91 19.13-1.67 15.535 12.19 27.546 35.095 41.89l14.09-22.32c7.672 3.156 17.84 8.514 31.073 17.486 21.814 14.79 39.95 31.436 40.356 31.81.002 0 .004.003.005.004l10.833-11.635 10.837 11.635c.182-.167 18.41-16.932 40.362-31.814 13.234-8.972 23.4-14.33 31.073-17.487l14.09 22.32c22.905-14.344 36.765-26.355 35.095-41.89" fill="#652D90"/><path d="M291.195 192.02c-1.592-3.17-6.94-.056-10.626 2.633 2.597-2.357 5.618-5.795 5.618-9.045 0-5.7-11.802 5.7-11.802 5.7s-4.423-16.39-11.088-12.115c-2.89 1.855 9.666 16.14 2.687 18.402-6.978 2.263-4.406-9.687-5.12-15.03-.716-5.345-7.223-2.18-9.37 5.827-.893 3.336-2.68 9.128-.458 14.883-6.895 9.483-13.29 13.734-19.016 12.606-5.032-.99-18.536-7.995-35.165-51.535-9.734-25.485-15.49-50.6-15.548-50.85l-16.046 3.617c.243 1.063 6.032 26.348 16.156 52.897 14.596 38.274 30.103 58.537 47.41 61.947 1.756.346 3.496.518 5.226.518 10.907 0 21.3-6.87 30.96-20.483 8.032-1.5 28.62-15.118 26.183-19.972m-182.428-26.962c-16.63 43.54-30.133 50.546-35.166 51.537-5.725 1.125-12.12-3.126-19.015-12.607 2.22-5.754.434-11.546-.46-14.882-2.146-8.008-8.65-11.173-9.366-5.83-.717 5.345 1.855 17.295-5.124 15.032-6.977-2.262 5.58-16.547 2.688-18.402-6.665-4.275-11.088 12.115-11.088 12.115s-11.802-11.4-11.802-5.7c0 3.25 3.022 6.69 5.62 9.047-3.687-2.69-9.035-5.805-10.628-2.633-2.435 4.853 18.152 18.473 26.182 19.97 9.663 13.617 20.054 20.485 30.962 20.485 1.728 0 3.47-.174 5.225-.52 17.307-3.41 32.816-23.673 47.41-61.948 10.125-26.55 15.914-51.833 16.155-52.896l-16.046-3.617c-.057.25-5.814 25.363-15.547 50.848" fill="#FAC7B5"/><path d="M291.195 192.02a2.484 2.484 0 0 0-.465-.636c-3.39 5.985-18.975 15.784-25.717 17.042-9.66 13.614-20.054 20.483-30.96 20.483-1.73 0-3.47-.173-5.226-.52-17.308-3.41-32.815-23.672-47.41-61.946-8.097-21.23-13.416-41.64-15.35-49.514l-.806.182c.243 1.063 6.032 26.348 16.156 52.897 14.596 38.274 30.103 58.537 47.41 61.947 1.756.346 3.496.518 5.226.518 10.907 0 21.3-6.87 30.96-20.483 8.032-1.5 28.62-15.118 26.183-19.972m-166.99-24.864c-14.594 38.275-30.103 58.538-47.41 61.948a26.986 26.986 0 0 1-5.225.518c-10.908 0-21.3-6.868-30.962-20.483-6.74-1.26-22.326-11.057-25.716-17.043-.175.178-.337.38-.466.637-2.435 4.853 18.152 18.473 26.182 19.97 9.663 13.617 20.054 20.485 30.962 20.485 1.728 0 3.47-.174 5.225-.52 17.307-3.41 32.816-23.673 47.41-61.948 10.125-26.55 15.914-51.833 16.155-52.896l-.806-.182c-1.932 7.873-7.253 28.28-15.348 49.512" fill-opacity=".1" fill="#000"/><path d="M181.208 212.093H124.46v-98.215h56.748v98.215z" fill="#FFF"/><path d="M145.946 102.85v11.022c0 3.54 2.882 6.413 6.437 6.413 3.556 0 6.438-2.872 6.438-6.413V102.85h-12.874z" fill="#FAC7B5"/><path d="M145.946 102.85v11.022c0 3.54 2.882 6.413 6.437 6.413 3.556 0 6.438-2.872 6.438-6.413V102.85h-12.874z" fill-opacity=".1" fill="#000"/><path d="M196.195 62.37c0 24.236-19.723 43.88-44.052 43.88-24.33 0-44.052-19.644-44.052-43.88 0-24.236 19.722-43.88 44.053-43.88 24.33 0 44.052 19.644 44.052 43.88" fill="#FAC7B5"/><path d="M196.15 60.587c-.94 23.41-20.278 42.1-44.006 42.1-23.73 0-43.068-18.69-44.007-42.1-.024.59-.046 1.184-.046 1.782 0 24.236 19.723 43.88 44.054 43.88 24.328 0 44.05-19.644 44.05-43.88 0-.6-.02-1.192-.044-1.783" fill-opacity=".1" fill="#000"/><path d="M166.994 70.584c-4.006 0-7.264-3.247-7.264-7.236 0-.59.48-1.07 1.073-1.07.592 0 1.073.48 1.073 1.07 0 2.81 2.296 5.098 5.118 5.098 2.82 0 5.114-2.287 5.114-5.098 0-.59.48-1.07 1.073-1.07.594 0 1.074.48 1.074 1.07 0 3.99-3.257 7.236-7.26 7.236M136.875 70.584c-4.004 0-7.262-3.247-7.262-7.236 0-.59.48-1.07 1.073-1.07.592 0 1.073.48 1.073 1.07 0 2.81 2.294 5.098 5.115 5.098 2.822 0 5.117-2.287 5.117-5.098 0-.59.48-1.07 1.073-1.07.592 0 1.073.48 1.073 1.07 0 3.99-3.258 7.236-7.263 7.236" fill="#5A4A42"/><path d="M109.602 50.97l-3.713-.995c5.602-20.794 24.62-35.316 46.253-35.316 16.733 0 32.482 8.893 41.1 23.21l-3.296 1.97c-7.347-12.205-23.543-17.522-37.804-17.522-18.16 0-37.838 11.197-42.54 28.65" fill="#F8E81C"/><path d="M152.143 18.49c-20.37 0-37.502 13.773-42.54 32.48l47.67-6.605V34.17L163 43.573l26.947-3.732c-7.698-12.788-21.745-21.35-37.804-21.35M129.596 80.067c0 .71-.578 1.284-1.29 1.284-.71 0-1.288-.573-1.288-1.283 0-.708.577-1.284 1.29-1.284.71 0 1.288.576 1.288 1.284M136.82 80.067c0 .71-.58 1.284-1.29 1.284-.713 0-1.29-.573-1.29-1.283 0-.708.577-1.284 1.29-1.284.71 0 1.29.576 1.29 1.284M133.207 83.664c0 .71-.578 1.285-1.29 1.285-.71 0-1.287-.576-1.287-1.286 0-.708.576-1.284 1.288-1.284.71 0 1.29.576 1.29 1.284M174.212 80.58c0 .71.577 1.286 1.288 1.286.713 0 1.29-.575 1.29-1.285 0-.707-.577-1.283-1.29-1.283-.71 0-1.288.576-1.288 1.284M166.988 80.58c0 .71.578 1.286 1.29 1.286.712 0 1.288-.575 1.288-1.285 0-.707-.576-1.283-1.29-1.283-.71 0-1.288.576-1.288 1.284M170.6 84.178c0 .71.578 1.285 1.29 1.285.71 0 1.288-.575 1.288-1.285 0-.708-.577-1.283-1.29-1.283-.71 0-1.288.575-1.288 1.283" fill="#EE4036"/><path d="M132.68 298.09c0-1.856.33-3.65.933-5.35-7.356-6.28-19.425-5.427-32.904-14.566-13.236-8.972-20.36-22.004-28.032-25.16l-14.09 22.32c-19.48-12.2-35.457-25.737-37.86-38.166-.115.597-.213 1.2-.278 1.81-1.67 15.537 12.19 27.548 35.095 41.893l14.088-22.32c7.674 3.156 17.84 8.514 31.076 17.486 13.05 8.85 24.783 18.36 32.192 24.656-.142-.852-.222-1.72-.222-2.602M283.36 238.98a22.192 22.192 0 0 0-.278-1.812c-2.403 12.43-18.73 25.966-38.214 38.167l-14.09-22.322c-16.316 13.942-20.083 20.012-27.676 25.16-9.912 6.72-19.056 3.124-26.13 8.91 1.498 1.758 2.645 3.723 3.366 5.832 6.508-5.213 14.36-11.182 22.764-16.88 13.234-8.97 23.4-14.33 31.073-17.486l14.09 22.32c22.905-14.344 36.765-26.355 35.095-41.89" fill-opacity=".25" fill="#000"/><path d="M231.132 253.014c-51.754 32.413-165.118 81.788-166.258 82.283l.203.464c-4.47 1.922-8.667 5.674-11.098 11.37-1.79 4.186-8.66 13-10.748 26.25-1.356 8.602 10.89 9.216 29.72-6.614 3.1-2.605 5.55-5.577 7.337-8.64 22.142-9.736 117.224-52.075 165.31-82.19l-14.468-22.922z" fill="#FAC7B5"/><path d="M243.983 273.373c-48.567 30.044-141.795 71.56-163.694 81.186-1.788 3.063-4.24 6.035-7.338 8.64-16.445 13.823-27.864 15.106-29.593 9.482-.04.234-.09.46-.13.698-1.354 8.602 10.89 9.216 29.722-6.614 3.1-2.605 5.55-5.577 7.337-8.64 22.142-9.736 117.224-52.076 165.31-82.19l-1.617-2.563z" fill-opacity=".1" fill="#000"/><path d="M260.075 376.64c-.873-13.385-6.915-22.784-8.314-27.115-2.35-7.272-7.644-11.84-13.074-13.657l.25-.57c-1.14-.496-114.486-49.86-166.258-82.285L58.21 275.935c49.125 30.767 147.305 74.294 166.648 82.777 1.485 3.005 3.552 5.964 6.22 8.656 17.315 17.466 29.564 17.96 28.997 9.272" fill="#FAC7B5"/><path d="M260.075 376.64c-.034-.524-.09-1.03-.14-1.543-1.44 6.45-13.028 4.672-28.856-11.295-2.67-2.692-4.737-5.652-6.222-8.656-19.135-8.392-115.402-51.072-165.03-81.773l-1.618 2.562c49.125 30.767 147.305 74.294 166.648 82.777 1.485 3.005 3.552 5.964 6.22 8.656 17.315 17.466 29.564 17.96 28.997 9.272" fill-opacity=".1" fill="#000"/></g></svg>