<svg width="216" height="404" viewBox="0 0 216 404" xmlns="http://www.w3.org/2000/svg"><title>Page 1</title><g fill="none" fill-rule="evenodd"><path d="M187.64 29.506a7.66 7.66 0 0 0-2.145.31C184.343 13.39 170.673.422 153.967.422s-30.376 12.97-31.53 29.394c-.68-.2-1.398-.31-2.143-.31a7.687 7.687 0 0 0-7.685 7.69c0 4.247 3.44 7.69 7.684 7.69.713 0 1.4-.104 2.056-.286v6.124c0 17.474 14.155 31.64 31.617 31.64 17.46 0 31.616-14.166 31.616-31.64V44.6a7.675 7.675 0 0 0 2.057.287 7.688 7.688 0 0 0 7.685-7.69c0-4.248-3.44-7.69-7.685-7.69" fill="#716558"/><path d="M153.967 79.47c-17.46 0-31.617-14.165-31.617-31.64v2.894c0 17.474 14.156 31.64 31.617 31.64 17.46 0 31.616-14.166 31.616-31.64V47.83c0 17.475-14.155 31.64-31.616 31.64zm41.217-43.72c-.676 3.555-3.795 6.244-7.544 6.244-.713 0-1.4-.105-2.057-.287V44.6a7.69 7.69 0 0 0 2.057.287c4.244 0 7.685-3.444 7.685-7.69 0-.496-.05-.98-.14-1.447zm-72.834 5.957a7.664 7.664 0 0 1-2.056.287c-3.75 0-6.868-2.69-7.545-6.244-.09.468-.14.95-.14 1.446 0 4.247 3.44 7.69 7.684 7.69.714 0 1.4-.104 2.056-.286v-2.893z" fill-opacity=".25" fill="#000"/><path d="M215.9 387.246c0 9.253-42.924 16.754-95.872 16.754s-95.87-7.5-95.87-16.754c0-9.254 42.922-16.754 95.87-16.754 52.948 0 95.872 7.5 95.872 16.754" fill-opacity=".1" fill="#000"/><g fill="#5A4A42"><path d="M181.216 377.94c-1.082-1.243-3.188-2.252-4.682-2.242l-13.492.1c-1.495.012-2.71 1.496-2.7 3.298l.053 10.207c.01 1.8 1.24 3.267 2.732 3.257l19.725-.207c1.494-.01-.556-13.17-1.636-14.413M126.698 377.94c1.082-1.243 3.188-2.252 4.682-2.242l13.492.1c1.495.012 2.71 1.496 2.7 3.298l-.053 10.207c-.01 1.8-1.24 3.267-2.733 3.257l-19.725-.207c-1.494-.01.556-13.17 1.636-14.413"/></g><path d="M148.896 376.773h-23.102V219.566h23.102v157.207zM181.823 376.773H158.72V219.566h23.103v157.207z" fill="#F1F1F2"/><path d="M181.63 218.126c0 15.386-12.463 27.858-27.837 27.858s-27.837-12.472-27.837-27.858c0-15.385 12.463-27.858 27.837-27.858s27.837 12.473 27.837 27.858" fill="#F1F1F2"/><path d="M153.793 245.77c-5.136 0-9.322-4.062-9.53-9.15-.005.13-.01.263-.01.396 0 5.273 4.27 9.547 9.54 9.547s9.54-4.274 9.54-9.547c0-.133-.005-.265-.01-.397-.208 5.088-4.394 9.15-9.53 9.15" fill-opacity=".1" fill="#000"/><path d="M153.803 81.434c-27.71 0-50.256 25.614-50.256 57.098h22.408v79.594h55.675v-79.594h22.43c0-31.484-22.546-57.098-50.257-57.098" fill="#F9BAB7"/><path d="M78.93 187.256c-13.31 0-25.466-5.895-34.23-16.6-9.472-11.572-14.48-28.375-14.48-48.592h19.06c0 15.76 3.514 28.382 10.164 36.506 5.075 6.2 11.995 9.613 19.487 9.613 13.195 0 27.217-10.492 27.217-29.936h19.058c0 30.677-23.527 49.01-46.274 49.01" fill="#716558"/><path d="M125.134 138.247c-1.427 28.933-24.18 46.116-46.203 46.116-13.31 0-25.466-5.895-34.23-16.6-9.016-11.013-13.977-26.774-14.435-45.7h-.045c0 20.218 5.008 37.02 14.48 48.594 8.764 10.704 20.92 16.6 34.23 16.6 22.748 0 46.275-18.333 46.275-49.01h-.07z" fill-opacity=".25" fill="#000"/><path d="M200.828 216.166h.053v-77.65h-19.058v77.33c-2.012 7.005-3.95 18.655-2.148 19.212 2.533.782 6.52-8.217 6.52-8.217s4.37 21.27 7.287 20.73c2.918-.542-.142-15.2-.142-15.2s5.755 10.228 7.833 9.463c2.078-.764-2.123-14.563-2.123-14.563s5.956 7.662 8.095 5.735c1.45-1.307-2.63-10.353-6.314-16.84" fill="#716558"/><path d="M201.17 238.94c-2.077.766-7.832-9.463-7.832-9.463s.375 1.798.737 4.155c1.62 2.71 5.476 8.798 7.096 8.2.628-.23.68-1.652.452-3.522-.093.328-.237.55-.45.63zm5.968-8.825c-2.142 1.916-8.092-5.738-8.092-5.738s.58 1.903 1.2 4.333c1.855 2.117 5.36 5.68 6.896 4.295.425-.384.372-1.435-.004-2.89zm-13.656 14.562c-2.917.54-7.288-20.73-7.288-20.73s-3.986 9-6.52 8.218c-.35-.108-.556-.632-.65-1.454-.17 2.43-.014 4.143.65 4.348 2.534.783 6.52-8.217 6.52-8.217s4.37 21.27 7.288 20.73c1.16-.216 1.373-2.668 1.21-5.54-.12 1.473-.474 2.51-1.21 2.647zm7.4-31.403h-.054l.053.095v-.096z" fill-opacity=".25" fill="#000"/><path d="M159.154 83.465a5.054 5.054 0 0 1-5.053 5.055 5.054 5.054 0 0 1-5.05-5.055 5.054 5.054 0 0 1 5.05-5.057 5.054 5.054 0 0 1 5.054 5.057" fill="#F83E92"/><path d="M167.358 73.502l-9.954 9.962 9.954 9.962V73.502zM140.845 73.502l9.954 9.962-9.955 9.962V73.502z" fill="#F83E92"/><path d="M161.092 39.725a.867.867 0 0 1-.866-.867c0-3.292-2.676-5.97-5.966-5.97a5.976 5.976 0 0 0-5.966 5.97.867.867 0 0 1-1.733 0c0-4.248 3.455-7.705 7.7-7.705s7.698 3.457 7.698 7.705c0 .48-.387.867-.866.867" fill="#C1B49A"/><path d="M149.472 37.124c0 4.847-3.925 8.775-8.768 8.775-4.843 0-8.77-3.93-8.77-8.776 0-4.847 3.927-8.776 8.77-8.776s8.768 3.93 8.768 8.776" fill="#9A8479"/><path d="M140.704 29.216c-4.358 0-7.903 3.547-7.903 7.908 0 4.36 3.546 7.908 7.904 7.908 4.357 0 7.902-3.547 7.902-7.908 0-4.36-3.545-7.908-7.902-7.908m0 17.55c-5.313 0-9.635-4.325-9.635-9.642 0-5.317 4.32-9.642 9.634-9.642 5.313 0 9.634 4.325 9.634 9.642 0 5.317-4.32 9.642-9.634 9.642" fill="#C1B49A"/><path d="M176.584 37.124c0 4.847-3.926 8.775-8.77 8.775-4.842 0-8.767-3.93-8.767-8.776 0-4.847 3.925-8.776 8.768-8.776 4.843 0 8.77 3.93 8.77 8.776" fill="#9A8479"/><path d="M167.815 29.216c-4.357 0-7.902 3.547-7.902 7.908 0 4.36 3.545 7.908 7.902 7.908s7.903-3.547 7.903-7.908c0-4.36-3.546-7.908-7.903-7.908m0 17.55c-5.313 0-9.635-4.325-9.635-9.642 0-5.317 4.322-9.642 9.635-9.642s9.635 4.325 9.635 9.642c0 5.317-4.322 9.642-9.635 9.642" fill="#C1B49A"/><path d="M184.076 17.037l-3.617 1.808a29.242 29.242 0 0 1 3.064 11.865 7.633 7.633 0 0 1 3.976-1.197 33.234 33.234 0 0 0-3.424-12.476m-63.642 12.476a7.628 7.628 0 0 1 3.976 1.197 29.262 29.262 0 0 1 3.063-11.863l-3.617-1.807a33.235 33.235 0 0 0-3.422 12.473" fill="#3B2313"/><path d="M141.683 56.987c0 6.693 5.422 12.12 12.11 12.12s12.11-5.427 12.11-12.12" stroke="#5A4A42" stroke-width="3"/><path d="M193.46 190.412c0 21.753-17.622 39.387-39.358 39.387-21.737 0-39.36-17.635-39.36-39.388 0-21.753 17.623-39.386 39.36-39.386 21.736 0 39.357 17.633 39.357 39.386" fill="#F9BAB7"/><path d="M193.408 188.388c-1.053 20.81-18.25 37.362-39.307 37.362-21.057 0-38.252-16.55-39.305-37.362-.034.67-.05 1.345-.05 2.024 0 21.753 17.62 39.387 39.356 39.387 21.738 0 39.36-17.635 39.36-39.388 0-.68-.018-1.354-.052-2.024" fill-opacity=".1" fill="#000"/><path d="M77.228 128.897c4.864-10.256 12.47-22.614 6.676-36.158-1.334-3.12-5.453-5.597-6.283-8.648-1.767-6.486 0-18.636 0-28.69 0-10.785.82-22.01 0-29.084-.442-3.808-2.8-7.748-6.3-10.502-2.536-1.41-5.477-2.218-8.622-2.073-18.468.858-11.343 24.7-13.352 43.232-8.245-3.654-15.49 1.757-19.244 6.29-7.98-1.135-12.977 4.013-15.71 9.432-3.246-.105-5.533.234-7.46 1.18C-4.24 79.344.724 91.863 3.79 102.958c1.608 5.823 2.48 12.758 4.32 17.292 2.746 6.77 8.484 11.937 9.425 17.686 1.084 6.624-.842 15.048.083 20.597 17.333 1.326 38.426.625 56.075.232.83-7.446-1.116-16.04 0-22.402.453-2.58 2.37-5.01 3.535-7.468" fill="#EE4036"/><path d="M47.383 82.915c-1.383 2-1.757 4.996-.394 7.86 1.822 3.83 11.676 8.952 13.745 9.433 2.523.585 5.81-1.612 6.284 1.965-.374 1.853-3.467.985-5.5 1.18-2.572.96-2.204 4.867-5.89 4.716-1.82-2.91 2.704-4.462 1.963-6.29-3.77 2.707-10.278 3.602-14.138.393-1.377 5.96-10.978 8.263-16.495 4.323-.762 5.254-7.674 7.69-13.352 5.502 3.556 13.21 14.013 19.515 10.996 39.302H65.84c-4.14-19.827 10.408-29.753 12.176-44.41C79.45 94.974 73.56 90.12 66.233 86.45c-6.108 7-13.112-1.067-18.85-3.537zm14.923 2.75c-2.59-2.78-6.236-4.5-10.996-5.11 2.498 2.598 6.722 6.816 10.996 5.11zM9.68 97.458c1.554 6.01 2.27 12.333 7.855 12.575 10.157.443 6.043-10.85 4.32-17.292-1.954-7.303-1.937-14.624-10.21-12.577C3.88 82.083 8.222 91.82 9.68 97.457zm15.71-5.503c1.624 6.07 2.54 12.083 6.676 13.363 2.78.862 7.83-.636 8.64-4.716.723-3.652-2.163-9.86-3.535-14.934-1.976-7.315-2.184-16.397-10.21-14.934-9.26 1.686-3.55 13.82-1.57 21.222zm23.564-26.332c-3.527-4.97-11.582-2.585-12.175 3.145-.42 4.035 2.42 10.142 3.926 15.72 2.29 8.485 3.144 20.374 12.96 15.72-3.898-3.25-11.265-6.488-10.996-13.755.154-4.16 3.64-8.457 9.426-8.647-1.605-4.278-.51-8.468-3.142-12.183zm20.814-25.94c0-9.313 1.53-19.033-7.07-18.47-7.458.486-5.89 8.342-5.89 16.506v40.874c4.37 1.916 7.98 4.59 12.96 5.895V39.682zm-.786 114.763H21.855c-1.48-5.468.652-11.696-.393-18.08-1.02-6.233-6.774-10.977-9.426-17.686-1.803-4.562-2.753-11-4.32-16.9-2.417-9.108-7.91-23.006 3.535-25.154 2.795-.523 5.038.142 7.07 1.18-.468-8.346 7.502-12.686 14.923-9.433 1.503-11.09 20.754-11.28 20.03 1.965.71-6.6.393-14.7.393-23.188 0-7.622-1.464-17.07.393-22.796 2.35-7.248 14.704-8.406 18.064-1.178 1.61 3.46.786 10.196.786 14.935v31.442c0 5.265-.997 11.583 0 15.72.902 3.748 4.535 4.684 6.284 8.254 5.447 11.125-1.286 22.653-5.106 31.05-1.696 3.728-4.468 8.34-5.106 12.576-.747 4.958.567 12.323 0 17.293z" fill="#FFF"/><path d="M65.84 55.01c-1.674-.158-4.045.38-5.105-.393-.47-.516-.153-.617 0-1.18 1.258-.44 6.02-1.426 5.105 1.573M59.557 56.583c2.46.552 7.262-1.24 7.855 1.178-.73 2.284-5.31.714-7.855 1.18-.353-1.15-.353-1.207 0-2.357M34.03 86.845c-.05.705.48.83.392 1.573-1.617.347-3.616 1.963-5.498.785.394-2.095 3.072-1.904 5.105-2.358" fill="#FFF"/><path d="M36.386 90.382c.508 2.365-6.05 3.88-7.855 2.75.095-3.15 5.94-3.947 7.856-2.75M17.928 91.954c-.435 1.932-3.64 2.264-5.106 1.964-.306-2.378 4.176-3.347 5.106-1.964M20.284 95.1c-1.09 2.326-5.538 2.907-7.855 2.75.05-.706-.482-.83-.393-1.572 1.793-1.07 6.626-3.657 8.247-1.18M48.44 114.043c.483-.417.982-.982 1.608-1.247 1.9-.803 3.772.73 4.137 2.25.553 2.306-.872 3.97-2.05 5.146-1.096 1.098-2.21 2.002-3.493 2.573-1.208-.603-2.518-1.383-3.655-2.493-1.05-1.025-2.22-2.546-2.13-4.38.09-1.778 1.125-3.18 3.014-3.296 1.368-.085 1.956.695 2.57 1.447M37.493 114.64c0-.743-.256-1.114-.767-1.114-.142 0-.247.01-.317.03a2.29 2.29 0 0 1-.408.045.438.438 0 0 1-.33-.143.492.492 0 0 1-.137-.353c0-.352.222-.528.663-.528.06 0 .13.006.21.015l.8.107c.3.04.612.06.933.06.312 0 .653-.026 1.025-.076l.678-.09c.08-.008.15-.014.21-.014.443 0 .664.176.664.528 0 .14-.046.26-.136.353a.438.438 0 0 1-.33.144c-.1 0-.236-.015-.407-.045-.07-.02-.176-.03-.316-.03-.512 0-.768.372-.768 1.116v6.044c0 .754.255 1.132.767 1.132.08 0 .186-.01.316-.03.19-.03.326-.045.406-.045.31 0 .467.16.467.482 0 .362-.22.543-.663.543h-.106a.458.458 0 0 0-.105-.016l-.783-.12c-.26-.04-.538-.062-.83-.062-.42 0-.797.026-1.128.076l-.693.105a.67.67 0 0 0-.106.015h-.12c-.433 0-.65-.18-.65-.543 0-.32.157-.48.468-.48.05 0 .186.008.407.028.11.03.215.046.316.046.51 0 .767-.378.767-1.132v-6.043zM36.652 125.66l2.32 7.626 2.545-8.123c.13-.423.356-.634.678-.634h.075c.1 0 .23.014.39.045.202.05.333.075.393.075.16.02.382.03.663.03.3 0 .537-.016.708-.045l.527-.09c.03-.01.09-.016.18-.016.463 0 .694.175.694.526 0 .323-.16.483-.482.483-.08 0-.198-.013-.354-.04a2.454 2.454 0 0 0-.353-.036c-.512 0-.768.377-.768 1.13V132.637c0 .755.25 1.132.752 1.132.1 0 .21-.016.33-.047.222-.02.352-.03.392-.03.32 0 .482.162.482.482 0 .363-.216.543-.647.543a15.838 15.838 0 0 0-1.988-.15 8.46 8.46 0 0 0-1.355.105c-.18.03-.34.045-.48.045-.394 0-.59-.17-.59-.504 0-.348.203-.52.608-.52.102 0 .178.005.228.02a5.7 5.7 0 0 0 .395.04c.365 0 .592-.376.683-1.13.02-.16.03-.67.03-1.534 0-.33.01-.812.03-1.444V125.63c0-.06-.024-.09-.075-.09-.03 0-.06.03-.09.09l-2.77 8.59c-.12.383-.402.573-.844.573-.26 0-.454-.037-.58-.112-.125-.075-.223-.228-.293-.46l-2.726-8.59c-.03-.06-.066-.09-.105-.09-.04 0-.06.03-.06.09l.09 6.97c.01.73.21 1.093.602 1.093h.632c.392 0 .588.17.588.512 0 .342-.2.513-.603.513-.07 0-.174-.01-.315-.03-.22-.03-.456-.066-.708-.106-.2-.03-.456-.044-.768-.044-.553 0-.91.014-1.07.044l-.633.12c-.02 0-.05.006-.09.016h-.09c-.462 0-.693-.176-.693-.526 0-.142.044-.26.136-.356.09-.095.2-.143.33-.143.11 0 .24.016.392.046.15.03.26.044.33.044.514 0 .77-.378.77-1.13v-6.06c0-.753-.256-1.13-.77-1.13-.08 0-.2.012-.36.037a2.43 2.43 0 0 1-.36.04c-.313 0-.468-.16-.468-.484 0-.35.226-.527.677-.527.04 0 .107.005.197.014l.528.06c.26.03.506.046.738.046.19 0 .45-.02.776-.06.325-.04.563-.06.713-.06.392 0 .653.246.783.738l.106.392zM51.414 131.635v-.287a6.455 6.455 0 0 1-.015-.41l-2.923-4.642c-.19-.304-.312-.48-.36-.53a.755.755 0 0 0-.56-.227.5.5 0 0 0-.27.06H47c-.46 0-.69-.176-.69-.528 0-.362.2-.543.6-.543.162 0 .362.02.603.06.482.08.933.12 1.355.12.312 0 .78-.046 1.4-.135.212-.03.393-.046.544-.046.41 0 .617.17.617.512 0 .33-.247.497-.74.497H49.865c-.122-.01-.182.03-.182.12 0 .04.005.067.015.083.01.015.035.058.075.128l2.305 3.92 2.334-3.92a.45.45 0 0 0 .077-.24c0-.09-.066-.136-.197-.136h-.03l-.27.045-.392.035c-.17.016-.3.024-.392.024-.412 0-.617-.18-.617-.536 0-.355.2-.535.6-.535.15 0 .333.014.543.045.563.08 1.05.12 1.46.12.433 0 .91-.04 1.432-.12.2-.03.372-.046.512-.046.382 0 .572.175.572.526 0 .323-.186.483-.557.483-.15 0-.267-.01-.348-.03-.16-.02-.27-.03-.33-.03-.262 0-.472.12-.633.362l-.226.345-2.967 4.658v.634c0 1.023.042 1.66.126 1.912.086.25.3.376.64.376.08 0 .204-.01.37-.037.165-.023.288-.036.37-.036.31 0 .466.16.466.482 0 .362-.226.542-.678.542h-.09a.45.45 0 0 0-.106-.015l-.828-.105c-.31-.04-.617-.06-.92-.06-.32 0-.626.02-.917.06l-.77.105c-.02 0-.05.005-.09.015h-.104c-.454 0-.68-.176-.68-.526 0-.333.16-.498.483-.498.08 0 .198.013.353.037.156.027.274.038.355.038.423 0 .678-.267.77-.8.01-.093.014-.535.014-1.333M32.685 143.235c0-.16.07-.296.21-.407a.5.5 0 0 0-.225-.075c-.222 0-.415.117-.58.353-.166.237-.25.51-.25.822 0 .553.217 1.01.65 1.372.43.36.982.543 1.655.543 1.517 0 2.36-.684 2.53-2.05.07-.573.106-1.36.106-2.367v-2.878c0-.743-.257-1.116-.773-1.116-.14 0-.248.01-.32.03-.16.03-.297.046-.408.046a.44.44 0 0 1-.335-.144.488.488 0 0 1-.137-.354c0-.352.22-.528.663-.528.06 0 .13.007.21.016l.8.104c.3.042.612.06.934.06.3 0 .642-.024 1.024-.074l.693-.09c.04-.01.11-.016.21-.016.443 0 .664.176.664.528 0 .332-.16.498-.482.498-.1 0-.236-.016-.406-.046-.07-.02-.176-.03-.317-.03-.513 0-.77.373-.77 1.116v2.878c0 1.508-.06 2.518-.18 3.03-.11.452-.336.87-.677 1.25-.733.814-1.728 1.222-2.982 1.222-1.054 0-1.91-.274-2.567-.82-.658-.55-.986-1.255-.986-2.12 0-.643.202-1.182.61-1.62.406-.436.91-.656 1.513-.656.432 0 .783.114 1.054.34.27.226.407.52.407.882 0 .25-.08.47-.24.655a.73.73 0 0 1-.572.278.753.753 0 0 1-.505-.188.57.57 0 0 1-.218-.445M44.613 137.297c-.964 0-1.712.372-2.244 1.115-.534.744-.8 1.79-.8 3.135 0 1.367.266 2.424.8 3.173.53.748 1.274 1.123 2.228 1.123.934 0 1.674-.39 2.222-1.17.547-.777.82-1.835.82-3.172 0-1.344-.26-2.382-.783-3.11-.522-.73-1.27-1.093-2.244-1.093m-.03 9.63c-1.336 0-2.392-.482-3.17-1.447-.78-.964-1.168-2.27-1.168-3.918 0-1.668.392-2.977 1.175-3.927.783-.95 1.862-1.424 3.238-1.424 1.316 0 2.362.464 3.14 1.388.778.925 1.167 2.176 1.167 3.753 0 1.71-.394 3.066-1.182 4.07-.788 1.005-1.855 1.508-3.2 1.508M52.926 142.617v1.673c0 .652.11 1.056.332 1.206.22.15.823.227 1.807.227 1.878 0 2.817-.705 2.817-2.11 0-1.297-.904-1.946-2.712-1.946h-1.25c-.542 0-.853.12-.933.362-.04.12-.06.315-.06.587zm0-3.06c0 .533.048.862.144.988.095.126.358.19.79.19h.844c1.777 0 2.665-.58 2.665-1.735 0-1.056-.734-1.583-2.2-1.583-1.024 0-1.654.065-1.89.196-.236.13-.354.467-.354 1.01v.934zm5.77-.648c0 1.024-.584 1.748-1.748 2.17.42.13.768.276 1.04.437.812.472 1.22 1.18 1.22 2.125 0 .925-.357 1.66-1.07 2.208-.713.548-1.667.822-2.862.822-.432 0-.98-.025-1.642-.075-.662-.05-1.15-.077-1.46-.077-.272 0-.527.016-.77.045l-.706.09a.625.625 0 0 0-.106.017h-.106c-.43-.01-.647-.19-.647-.543 0-.322.154-.483.466-.483.08 0 .216.014.407.045.13.02.235.03.316.03.51 0 .767-.372.767-1.115v-6.06c0-.753-.256-1.13-.768-1.13-.09 0-.197.01-.317.03-.18.03-.317.045-.407.045-.312 0-.467-.16-.467-.482 0-.352.23-.527.692-.527h.195l.738.105c.21.03.497.045.86.045.38 0 .923-.03 1.625-.09.472-.04.98-.06 1.522-.06 1.014 0 1.804.213 2.372.64.567.427.85 1.022.85 1.786z" fill="#FFF"/></g></svg>