<svg width="40" height="31" viewBox="0 0 40 31" xmlns="http://www.w3.org/2000/svg"><path d="M32.687 1.65c-.932 0-1.78.203-2.47.452-3.3 1.19-6.198 4.565-7.38 8.596-.532 1.813-.966 4.91-1.11 8.01 2.632-.198 5.152-.71 7.19-1.54-.555-1.703-1.896-3.2-3.822-4.114a.827.827 0 0 1 .71-1.494c2.282 1.085 3.896 2.85 4.62 4.888 3.803-2.085 7.68-6.132 7.91-9.668.107-1.64-.634-3.006-2.202-4.063a6.06 6.06 0 0 0-3.446-1.068M10.44 17.472c2.1.743 4.652 1.173 7.28 1.293-.02-2.795-.255-5.784-.69-8.382-.715-4.26-4.39-7.206-7.714-8.238-2.703-.84-5.116-.513-6.454.874-1.297 1.343-1.317 3.15-1.104 4.43.592 3.564 3.58 7.557 6.952 9.286l.198.1c.698-2.265 2.354-4.116 4.79-5.237a.827.827 0 0 1 .692 1.5c-2.062.95-3.42 2.48-3.95 4.373m-.248 1.664c-.012.41.01.83.064 1.263.506 3.947 2.664 7.377 4.363 8.103.52.223.95.186 1.356-.112 1.07-.787 1.63-4.043 1.73-7.96-2.684-.12-5.297-.55-7.514-1.293m11.488 1.24c-.036 3.37.322 6.465 1.328 7.572.86.945 1.417.803 1.6.756 1.675-.427 3.495-4.548 4.428-8.396a5.77 5.77 0 0 0 .163-1.475c-2.184.836-4.806 1.35-7.52 1.542m2.67 10.016c-.72 0-1.623-.294-2.566-1.332-1.35-1.482-1.802-4.95-1.774-8.606-.218.005-.435.008-.652.008-.082 4.102-.685 7.996-2.4 9.26-.876.645-1.937.752-2.99.302-2.46-1.052-4.81-5.187-5.353-9.414a9.417 9.417 0 0 1-.04-2.103c-.21-.096-.42-.196-.62-.3C4.163 16.264.796 11.755.126 7.72c-.393-2.37.142-4.394 1.547-5.85C3.452.025 6.494-.462 9.806.566c3.53 1.095 7.968 4.252 8.855 9.544.312 1.857.664 5.232.704 8.69.23 0 .46-.004.69-.01.15-3.402.66-6.732 1.195-8.558 1.346-4.59 4.567-8.302 8.406-9.687 2.61-.94 5.24-.657 7.402.8 2.06 1.39 3.073 3.305 2.928 5.542-.284 4.395-4.903 9.027-9.174 11.23a7.437 7.437 0 0 1-.168 2.583c-.495 2.043-2.365 8.776-5.626 9.61-.197.05-.42.083-.667.083" fill="#FFF" fill-rule="evenodd"/></svg>