<svg width="98" height="128" viewBox="0 0 98 128" xmlns="http://www.w3.org/2000/svg"><g fill="none" fill-rule="evenodd"><path d="M85.315 128.207c0 8.09-6.7 14.645-14.964 14.645-8.263 0-14.962-6.556-14.962-14.645 0-8.088 6.7-14.645 14.963-14.645 8.266 0 14.965 6.557 14.965 14.645" fill="#F1F1F2"/><path d="M70.357 56.347c-14.896 0-27.014 13.466-27.014 30.017h12.045v41.843h29.927V86.364H97.37c0-16.55-12.118-30.017-27.013-30.017" fill="#FFF992"/><path d="M72.895 57.038c-.068 1.856-1.626 3.43-3.483 3.516l1.057-.05c-1.857.087-3.305-1.353-3.237-3.204l.167-4.564 5.663-.262-.168 4.564z" fill="#FAC7B5"/><path d="M72.895 57.038c-.068 1.856-1.626 3.43-3.483 3.516l1.057-.05c-1.857.087-3.305-1.353-3.237-3.204l.167-4.564 5.663-.262-.168 4.564z" fill-opacity=".1" fill="#000"/><path d="M92.538 27.656c-.06 0-.12.007-.178.01-1.394-11.876-10.793-21.06-22.18-21.06S49.394 15.79 48 27.667c-.06-.003-.118-.01-.178-.01-2.185 0-3.956 1.743-3.956 3.892 0 2.148 1.77 3.89 3.956 3.89.144 0 .285-.008.424-.022C50.27 46.49 59.32 54.844 70.18 54.844c10.86 0 19.91-8.353 21.934-19.428.14.014.28.023.424.023 2.185 0 3.956-1.744 3.956-3.892 0-2.15-1.77-3.892-3.956-3.892" fill="#FAC7B5"/><path d="M93.754 33.286c-.143 0-.284-.01-.424-.023-.134.733-.3 1.453-.495 2.16 1.803-.13 3.268-1.45 3.59-3.164a3.975 3.975 0 0 1-2.67 1.026M71.394 52.69c-10.86 0-19.91-8.352-21.933-19.427a4.07 4.07 0 0 1-.424.023c-2.185 0-3.956-1.743-3.956-3.89 0-.245.025-.482.07-.713a3.848 3.848 0 0 0-1.286 2.865c0 2.15 1.77 3.89 3.956 3.89.144 0 .285-.007.424-.022C50.27 46.49 59.32 54.844 70.18 54.844c8.52 0 15.924-5.142 19.697-12.704-4.024 6.367-10.798 10.55-18.48 10.55" fill-opacity=".1" fill="#000"/><path d="M59.487 37.66c0 5.808 4.787 10.517 10.693 10.517 5.905 0 10.693-4.71 10.693-10.516H59.487z" fill="#FFF"/><path d="M65.528 29.503a.603.603 0 0 1-.607-.598c0-1.346-1.113-2.44-2.48-2.44-1.37 0-2.483 1.094-2.483 2.44 0 .33-.272.598-.608.598a.603.603 0 0 1-.608-.598c0-2.005 1.658-3.636 3.697-3.636 2.037 0 3.696 1.63 3.696 3.635 0 .33-.272.598-.608.598M80.56 29.503a.603.603 0 0 1-.61-.598c0-1.346-1.112-2.44-2.48-2.44-1.37 0-2.482 1.094-2.482 2.44 0 .33-.272.598-.608.598a.603.603 0 0 1-.607-.598c0-2.005 1.658-3.636 3.697-3.636 2.038 0 3.697 1.63 3.697 3.635 0 .33-.272.598-.608.598" fill="#5A4A42"/><path d="M80.777 7.168c-2.966-1.686-7.095-3.4-12.563-4.347C54.974.53 52.286 3.527 44.937 0c0 0 5.09 7.277 11.05 9.457-5.58 4.28-9.41 11.01-10.113 18.706a3.983 3.983 0 0 1 1.948-.507c.81 0 1.56.24 2.188.65.8-7.957 5.5-14.657 11.968-17.78 5.375.56 13.064.94 18.468 1.155 5.39 3.456 9.19 9.543 9.904 16.627.627-.41 1.38-.65 2.188-.65.708 0 1.37.184 1.946.505-.846-9.257-6.215-17.116-13.707-20.994" fill="#5A4A42"/><path d="M81.663 11.68c-5.405-.215-13.094-.594-18.47-1.154l-.2.1c5.296.506 12.38.852 17.453 1.055 5.39 3.456 9.19 9.543 9.903 16.627.35-.23.74-.403 1.157-.514-.84-6.863-4.586-12.74-9.844-16.112m12.773 16.036a4.002 4.002 0 0 0-1.295-.012c.483.073.936.23 1.344.458-.014-.15-.032-.297-.048-.446M54.488 1.872c1.003.01 2.06-.012 3.236-.02-1.184-.008-2.245.012-3.236.02m-6.053 25.832c.576.088 1.11.298 1.575.602.017-.172.04-.342.06-.513a4.005 4.005 0 0 0-1.03-.137c-.207 0-.408.018-.605.048M46.725.766A21.97 21.97 0 0 1 44.936 0s5.09 7.277 11.05 9.457c-5.58 4.28-9.41 11.01-10.113 18.706a4 4 0 0 1 1.263-.446c.807-7.51 4.595-14.063 10.065-18.26C52.426 7.71 48.21 2.69 46.724.767" fill-opacity=".35" fill="#000"/><path d="M30.11 111.978c-7.154 0-13.69-3.1-18.4-8.726-5.092-6.084-7.783-14.917-7.783-25.545H14.17c0 8.284 1.89 14.92 5.466 19.19 2.728 3.26 6.448 5.055 10.475 5.055 7.093 0 14.63-5.516 14.63-15.738h10.245c0 16.127-12.647 25.764-24.874 25.764" fill="#FAC7B5"/><path d="M54.946 86.214c-.767 15.21-12.998 24.244-24.835 24.244-7.154 0-13.69-3.1-18.4-8.726-4.846-5.79-7.513-14.077-7.76-24.025h-.023c0 10.628 2.69 19.46 7.784 25.545 4.71 5.627 11.246 8.726 18.4 8.726 12.228 0 24.875-9.637 24.875-25.764h-.04z" fill-opacity=".1" fill="#000"/><path d="M95.634 127.177h.03v-40.82H85.417v40.652c-1.08 3.68-2.123 9.806-1.155 10.098 1.362.412 3.505-4.32 3.505-4.32s2.35 11.182 3.917 10.898c1.568-.285-.077-7.99-.077-7.99s3.094 5.376 4.21 4.974c1.117-.4-1.14-7.656-1.14-7.656s3.2 4.028 4.35 3.015c.78-.688-1.414-5.444-3.394-8.853" fill="#FAC7B5"/><path d="M95.82 139.15c-1.118.402-4.212-4.975-4.212-4.975s.202.945.396 2.184c.87 1.424 2.944 4.624 3.815 4.31.336-.12.364-.87.24-1.852-.05.173-.126.29-.24.33zm3.206-4.64c-1.15 1.007-4.35-3.016-4.35-3.016s.312 1 .646 2.277c.997 1.114 2.88 2.987 3.706 2.26.23-.202.2-.755-.002-1.52zm-7.34 7.655c-1.568.285-3.918-10.897-3.918-10.897s-2.143 4.73-3.505 4.32c-.187-.057-.298-.333-.35-.765-.09 1.277-.007 2.178.35 2.285 1.362.412 3.505-4.32 3.505-4.32s2.35 11.182 3.918 10.898c.623-.113.738-1.402.65-2.912-.064.774-.255 1.32-.65 1.39zm3.977-16.51h-.03l.03.05v-.05z" fill-opacity=".1" fill="#000"/><path d="M39.82 109.926c0 1.883-1.56 3.41-3.485 3.41H3.485c-1.925 0-3.485-1.527-3.485-3.41V64.422c0-1.883 1.56-3.41 3.484-3.41h32.85c1.925 0 3.485 1.527 3.485 3.41v45.504z" fill="#716558"/><path fill="#FFF" d="M35.58 109.525H4.24V69.05h31.34z"/><path d="M19.91 65.352a.94.94 0 0 1 .948.93.936.936 0 0 1-.95.927.94.94 0 0 1-.947-.93.94.94 0 0 1 .95-.928m-6.6 6.433h13.2c-.117-1.346-.667-2.368-1.92-2.698-.026-.007-.06-.02-.088-.027-.825-.23-1.43-.505-1.43-1.393V66.28c0-1.715-1.41-3.115-3.163-3.115-1.754 0-3.163 1.393-3.163 3.116v1.387c0 .882-.605 1.157-1.43 1.386-.028.007-.062.027-.097.034-1.25.33-1.78 1.352-1.91 2.698" fill="#BBBDBF"/><path fill="#A6A8AB" d="M32.114 105.12H7.704v-1.266h24.41zM32.114 100.255H7.704v-1.267h24.41zM32.114 95.39H7.704v-1.268h24.41z"/><path stroke="#2CE6CE" stroke-width="3" d="M7.704 87.577l5.536-6.142 4.183 7.852 5.67-11.244 3.728 4.61 3.74-8.227"/><path d="M7.343 60.428c0 2.412-1.112 4.367-2.484 4.367-1.372 0-2.484-1.955-2.484-4.367S3.488 56.06 4.86 56.06c1.37 0 2.483 1.956 2.483 4.368M12.31 60.428c0 2.412-1.112 4.367-2.484 4.367-1.37 0-2.483-1.955-2.483-4.367s1.112-4.367 2.483-4.367c1.372 0 2.484 1.956 2.484 4.368M17.277 60.428c0 2.412-1.112 4.367-2.483 4.367-1.372 0-2.484-1.955-2.484-4.367s1.112-4.367 2.484-4.367c1.37 0 2.483 1.956 2.483 4.368" fill="#FAC7B5"/></g></svg>