<svg width="120" height="112" viewBox="0 0 120 112" xmlns="http://www.w3.org/2000/svg"><path d="M8.893 111.03h24.873V55.755H0l8.893 55.277zM20.13 90.81c3.926 0 7.11 3.192 7.11 7.13 0 3.94-3.184 7.133-7.11 7.133s-7.11-3.193-7.11-7.132c0-3.938 3.184-7.13 7.11-7.13zm99.844-35.947c.436-4.736-4.79-10.207-7.776-11.368-7.277-2.83-20.01-.42-30.44-1.337-1.375-9.916 7.45-17.912 8.222-26.084.825-8.716-3.16-13.578-11.11-15.2h-2.665c-2.426.227-1.995 6.133-2.444 8.686-.795 4.523-2.143 8.597-4.665 11.58-2.666 3.154-5.577 4.453-7.996 7.6-1.352 1.756-2.138 4.193-3.334 6.333-2.857 5.11-9.125 20.596-15.332 23.133-1.103.45-3.105.57-4.222.446v46.584c13.246 2.835 26.806 5.354 42.437 5.795h12.663c2.496-.587 6.125-.262 8.887-1.336 2.73-1.063 8.117-5.04 8.887-8.47.4-1.78-.482-3.99 0-6.018.817-3.44 6.132-4.926 6.443-8.693.234-2.838-2.686-5.985-2.444-8.693.278-3.11 4.805-4.763 4.888-7.8.095-3.51-3.995-5.22-3.777-8.47.205-3.057 3.51-3.773 3.777-6.687z" fill="#2CE6CE" fill-rule="evenodd"/></svg>