<svg width="36" height="37" viewBox="0 0 36 37" xmlns="http://www.w3.org/2000/svg"><path d="M18 .168c-9.922 0-17.965 8.06-17.965 18s8.043 18 17.965 18 17.965-8.06 17.965-18-8.043-18-17.965-18zm5.995 11.266a2.366 2.366 0 0 1 2.363 2.37 2.366 2.366 0 0 1-2.363 2.367 2.366 2.366 0 0 1-2.364-2.367 2.366 2.366 0 0 1 2.365-2.37zm-11.857 0a2.366 2.366 0 0 1 2.364 2.37 2.366 2.366 0 0 1-2.364 2.367 2.366 2.366 0 0 1-2.364-2.367 2.366 2.366 0 0 1 2.364-2.37zm12.76 14.328H11.32A1.616 1.616 0 0 1 9.7 24.145c0-.895.724-1.618 1.617-1.618H24.9c.892 0 1.615.723 1.615 1.618 0 .894-.723 1.617-1.616 1.617z" fill="#FFA76C" fill-rule="evenodd"/></svg>