<svg width="16" height="14" viewBox="0 0 16 14" xmlns="http://www.w3.org/2000/svg"><path d="M13.952 5.32c.088.396.14.804.14 1.223 0 3.233-2.746 5.928-6.36 6.507a6.836 6.836 0 0 0 4.94.055c.928.317 1.942.4 2.78.4a7.13 7.13 0 0 1-.954-1.487C15.428 11.188 16 10.09 16 8.88c0-1.43-.798-2.706-2.048-3.56zM.712 12.145a.502.502 0 0 0 .443.268h.024c.53-.026 1.582-.377 2.698-1.085.597.105 1.934.303 2.4.303 3.524 0 6.282-2.452 6.282-5.584C12.56 2.966 9.744.46 6.28.46 2.814.46 0 2.966 0 6.046 0 7.478.63 8.865 1.742 9.9a7.46 7.46 0 0 1-.984 1.707.502.502 0 0 0-.047.538zm.29-6.1c0-2.527 2.367-4.584 5.28-4.584 2.91 0 5.28 2.058 5.28 4.585 0 2.612-2.27 4.583-5.28 4.583-.396 0-1.97-.23-2.404-.32a.5.5 0 0 0-.38.073c-.43.285-.834.5-1.186.66.19-.36.356-.733.495-1.118.07-.2.01-.42-.153-.556C1.59 8.49 1.002 7.31 1.002 6.046z" fill="none" fill-rule="evenodd"/></svg>