<svg width="16" height="16" viewBox="0 0 16 16" xmlns="http://www.w3.org/2000/svg"><path d="M.49 8.6l1.734-.065c.205.266.442.508.706.724l-.114 1.736c.19.108.386.208.592.297.205.09.413.162.622.227l1.185-1.275c.34.043.677.05 1.01.016l1.145 1.307c.427-.117.84-.28 1.23-.49l-.064-1.735c.265-.205.507-.442.723-.706l1.736.114c.108-.19.208-.386.297-.592.09-.205.162-.413.227-.622L10.245 6.35c.043-.338.05-.676.016-1.01l1.307-1.144a5.955 5.955 0 0 0-.49-1.23l-1.735.064a4.467 4.467 0 0 0-.706-.723L8.75.57a6.057 6.057 0 0 0-.592-.297 6.107 6.107 0 0 0-.622-.226L6.352 1.322a4.496 4.496 0 0 0-1.01-.016L4.196 0c-.427.117-.84.28-1.23.49l.064 1.734a4.46 4.46 0 0 0-.723.705L.57 2.815c-.108.19-.208.386-.297.592a6.107 6.107 0 0 0-.226.622l1.275 1.185c-.043.34-.05.677-.016 1.01L0 7.37c.117.426.28.84.49 1.23zm6.48-5.572a3 3 0 1 1-2.376 5.51 3 3 0 0 1 2.377-5.51zM4.284 5.783a1.5 1.5 0 1 0 3 0 1.5 1.5 0 0 0-3 0zm10.738 5.99l-.413-.146.19-.398.434-.916c-.16-.2-.343-.384-.545-.546l-.915.435-.398.19-.147-.415-.34-.957a3.524 3.524 0 0 0-.77 0l-.34.96-.148.413-.398-.19-.916-.434c-.2.16-.384.343-.546.545l.435.915.19.398-.415.147-.957.34a3.492 3.492 0 0 0 0 .77l.96.34.413.147-.19.398-.434.915c.16.2.343.384.545.546l.915-.434.398-.19.147.415.34.958a3.492 3.492 0 0 0 .77 0l.34-.957.148-.413.398.19.916.434c.2-.16.384-.343.546-.545l-.435-.915-.19-.398.415-.147.957-.34a3.524 3.524 0 0 0 0-.77l-.96-.34zM12.5 13.25a.75.75 0 1 1 0-1.5.75.75 0 0 1 0 1.5z" fill-rule="evenodd"/></svg>
