<svg width="16" height="16" viewBox="0 0 16 16" xmlns="http://www.w3.org/2000/svg"><path d="M7 2.5C7 1.162 5.838 0 4.5 0S2 1.162 2 2.5 3.162 5 4.5 5 7 3.838 7 2.5zM8.75 12c0-4-2.076-6-4.375-6C2.075 6 0 8 0 12c0 2.74 8.75 2.74 8.75 0zm3-5.055c1.338 0 2.5-1.162 2.5-2.5s-1.162-2.5-2.5-2.5-2.5 1.162-2.5 2.5 1.162 2.5 2.5 2.5zm-.125 1c-.69 0-1.353.203-1.953.565.363.976.578 2.133.578 3.49 0 1.347-.898 2.396-2.44 2.996C9.723 16.614 16 16.27 16 13.946c0-4-2.076-6-4.375-6z" fill="none" fill-rule="evenodd"/></svg>