<svg width="16" height="16" viewBox="0 0 16 16" xmlns="http://www.w3.org/2000/svg"><path d="M5.687 15.672c.03.023.046.055.077.077.043.028.093.034.14.054.054.026.108.05.166.067a.962.962 0 0 0 .17.027.98.98 0 0 0 .244-.003c.034-.006.066-.014.1-.023.1-.024.193-.063.284-.118.016-.01.03-.022.045-.032.06-.04.124-.07.175-.127.036-.04.052-.09.08-.133.002-.002.005-.003.005-.005l8.66-13.88A1.017 1.017 0 1 0 14.13.46l-8 12.82L1.708 8.98a1.016 1.016 0 0 0-1.38 1.492l5.322 5.18c.01.01.023.012.037.022z" fill="#2CE6CE" fill-rule="evenodd"/></svg>