<svg width="43" height="32" viewBox="0 0 43 32" xmlns="http://www.w3.org/2000/svg"><title>Logo Copy</title><path d="M34.414 1.737c-.98 0-1.874.214-2.6.476-3.475 1.253-6.525 4.806-7.77 9.05-.56 1.91-1.017 5.17-1.167 8.434 2.77-.208 5.423-.748 7.568-1.62-.584-1.794-1.996-3.37-4.024-4.333a.87.87 0 0 1 .75-1.573c2.402 1.143 4.1 3.003 4.865 5.147 4.002-2.195 8.085-6.456 8.327-10.18.112-1.725-.67-3.164-2.32-4.276a6.38 6.38 0 0 0-3.628-1.123m-23.42 16.66c2.21.78 4.896 1.235 7.662 1.36-.02-2.94-.268-6.09-.727-8.824-.752-4.484-4.62-7.588-8.122-8.674-2.846-.884-5.386-.54-6.795.92C1.648 4.593 1.627 6.495 1.85 7.842c.624 3.754 3.77 7.957 7.32 9.778l.21.105c.733-2.384 2.477-4.332 5.042-5.513a.87.87 0 0 1 .73 1.582c-2.172 1-3.6 2.608-4.16 4.603m-.26 1.75c-.014.433.008.877.066 1.33.533 4.157 2.805 7.768 4.593 8.532.55.234 1.003.196 1.43-.12 1.126-.828 1.717-4.256 1.82-8.38-2.824-.126-5.575-.58-7.91-1.362m12.096 1.306c-.038 3.55.34 6.807 1.398 7.972.906.996 1.492.847 1.686.797 1.762-.45 3.68-4.788 4.66-8.84.127-.52.183-1.04.173-1.552-2.3.88-5.06 1.422-7.917 1.624M25.64 32c-.76 0-1.71-.31-2.705-1.402-1.42-1.562-1.896-5.214-1.868-9.063-.23.005-.457.008-.686.01-.085 4.318-.72 8.417-2.527 9.748-.92.68-2.038.792-3.147.318-2.59-1.107-5.065-5.46-5.636-9.91-.097-.76-.11-1.502-.04-2.215a14.49 14.49 0 0 1-.654-.314C4.382 17.123.838 12.376.132 8.13-.282 5.63.282 3.5 1.76 1.968 3.635.03 6.837-.485 10.325.597c3.716 1.153 8.388 4.477 9.322 10.05.328 1.953.698 5.507.74 9.148.243 0 .485-.004.726-.01.16-3.582.695-7.09 1.26-9.012 1.417-4.832 4.81-8.74 8.85-10.198 2.75-.99 5.517-.692 7.794.842 2.17 1.463 3.235 3.48 3.083 5.835-.3 4.628-5.162 9.505-9.66 11.824.1.89.046 1.805-.176 2.72-.522 2.152-2.49 9.24-5.924 10.117-.207.054-.443.09-.7.09" fill="#FFF" fill-rule="evenodd"/></svg>