<svg width="57" height="65" viewBox="0 0 57 65" xmlns="http://www.w3.org/2000/svg"><title>ButterflyLogo Copy 2</title><path d="M45.956 2.317c-1.308 0-2.5.286-3.467.635-4.636 1.672-8.705 6.41-10.366 12.072-.747 2.546-1.356 6.896-1.557 11.25 3.695-.278 7.234-.999 10.095-2.163-.778-2.392-2.662-4.493-5.367-5.778a1.162 1.162 0 1 1 .998-2.099c3.205 1.524 5.47 4.005 6.49 6.865 5.338-2.928 10.785-8.611 11.107-13.577.15-2.303-.891-4.222-3.093-5.706-1.655-1.115-3.325-1.5-4.84-1.5M14.714 24.54c2.95 1.043 6.532 1.648 10.222 1.816-.027-3.925-.357-8.123-.969-11.772-1.002-5.981-6.163-10.12-10.833-11.57-3.796-1.177-7.184-.719-9.063 1.228-1.822 1.887-1.85 4.424-1.55 6.22.83 5.008 5.028 10.615 9.763 13.043l.278.139c.98-3.18 3.306-5.779 6.727-7.354a1.162 1.162 0 0 1 .972 2.11c-2.896 1.334-4.802 3.48-5.547 6.14m-.35 2.336a11.3 11.3 0 0 0 .09 1.774c.712 5.544 3.743 10.36 6.128 11.38.73.313 1.336.262 1.906-.158 1.501-1.106 2.29-5.679 2.428-11.181-3.768-.167-7.437-.771-10.551-1.815m16.134 1.742c-.05 4.734.451 9.08 1.864 10.634 1.209 1.328 1.991 1.13 2.249 1.063 2.35-.6 4.907-6.386 6.218-11.79a8.104 8.104 0 0 0 .229-2.072c-3.067 1.174-6.748 1.896-10.56 2.165m3.751 14.067c-1.012 0-2.28-.413-3.606-1.87-1.894-2.084-2.53-6.955-2.491-12.088-.306.006-.61.01-.916.011-.115 5.76-.961 11.229-3.371 13.005-1.229.905-2.719 1.056-4.198.423-3.455-1.478-6.756-7.284-7.518-13.22a13.225 13.225 0 0 1-.055-2.954c-.298-.135-.59-.275-.871-.42C5.896 22.84 1.169 16.507.228 10.842-.325 7.512.426 4.67 2.4 2.627 4.9.036 9.17-.648 13.823.795c4.958 1.538 11.19 5.972 12.435 13.404.438 2.607.931 7.347.988 12.204.323-.001.646-.006.968-.014.212-4.778.927-9.455 1.68-12.02C31.784 7.923 36.309 2.711 41.7.766c3.667-1.322 7.358-.923 10.395 1.123 2.894 1.95 4.316 4.642 4.113 7.783-.4 6.172-6.886 12.677-12.885 15.77.133 1.186.06 2.408-.235 3.629-.696 2.87-3.322 12.325-7.902 13.494-.277.071-.591.12-.936.12zM2.706 60.47H4.09C5.529 60.47 6 59.808 6 58.91c0-.985-.677-1.515-1.839-1.515H2.706v3.074zm0-4.383h1.089c1.264 0 1.78-.588 1.78-1.368 0-1.058-.722-1.294-1.677-1.294H2.706v2.662zm1.516-4.015c1.661 0 3.176.5 3.176 2.456 0 .97-.559 1.647-1.353 2.06 1.103.278 1.853 1.043 1.853 2.338 0 1.911-1.323 2.926-3.765 2.926H0v-1.19l.486-.045c.25-.029.426-.118.426-.412v-6.84l-.838-.043v-1.25h4.148zm11.56 9.78h-2.383v-.956c-.515.736-1.412 1.148-2.383 1.148-1.47 0-2.28-.81-2.28-2.544v-3.398c0-.309-.117-.398-.367-.412l-.47-.03v-1.205h2.588v4.662c0 .897.147 1.574 1.088 1.574 1.03 0 1.574-.691 1.574-1.457v-3.103c0-.324-.088-.427-.368-.44l-.47-.03v-1.206h2.588v5.765c0 .323.088.397.368.426l.515.045v1.161zm2.794-8.956v1.559h1.956l-.148 1.235h-1.808v3.868c0 .897.353 1.162.956 1.162.397 0 .765-.162 1-.309l.441 1.133c-.44.308-1.176.514-1.868.514-2.294 0-2.28-1.412-2.28-2.441V55.69h-1.044l.148-1.074c1.029-.088 1.382-.882 1.691-1.72h.956zm5.192 0v1.559h1.956l-.148 1.235h-1.808v3.868c0 .897.353 1.162.956 1.162.397 0 .764-.162 1-.309l.441 1.133c-.441.308-1.176.514-1.868.514-2.294 0-2.28-1.412-2.28-2.441V55.69h-1.044l.147-1.074c1.03-.088 1.383-.882 1.692-1.72h.956zm5.927 2.588c-1.177 0-1.706 1.133-1.75 2.22 1.088-.014 2.632-.264 2.632-1.396 0-.544-.352-.824-.882-.824zm2.5.795c0 2.264-2.456 2.647-4.191 2.661.058.956.558 1.736 1.809 1.736.867 0 1.5-.397 1.853-.648l.559 1.192c-.235.206-1.206.824-2.589.824-2.5 0-3.471-1.53-3.471-3.722 0-2.176 1.22-4.088 3.633-4.088 1.441 0 2.397.735 2.397 2.045zm1.436-.148c0-.324-.088-.427-.367-.441l-.618-.044v-1.191h2.486v1.103a2.3 2.3 0 0 1 2.089-1.324c.484 0 .925.088 1.411.323v2.192l-1.368.103v-.677c0-.176-.03-.309-.147-.368a.873.873 0 0 0-.397-.073c-.794 0-1.338.632-1.338 1.486v3.412l1.28.059v1.161H32.72v-1.117l.485-.044c.279-.03.426-.118.426-.486v-4.074zm7.174-.44H39.54v-1.236h1.265v-.56c0-1.176.265-2.676 2.544-2.676.647 0 1.545.236 2.045.514l-.427 1.177c-.426-.22-.985-.368-1.397-.368-.736 0-1.015.413-1.015 1.221v.692h2.177v1.235h-2.177v4.927l1.236.059v1.176h-3.898v-1.118l.485-.043c.28-.03.427-.118.427-.486V55.69zm7.635 4.94l.838.045v1.176h-3.5v-1.117l.485-.044c.265-.03.426-.118.426-.47v-7.252c0-.265-.146-.338-.367-.353l-.515-.029v-1.221h2.633v9.266zm6.338-.176c-.514.735-1.412 1.148-2.382 1.148-1.47 0-2.28-.81-2.28-2.545v-2.956c0-.309-.118-.398-.367-.412l-.471-.03v-1.205h2.588v4.22c0 .898.147 1.575 1.089 1.575 1.03 0 1.573-.692 1.573-1.457v-2.662c0-.324-.088-.441-.368-.441l-.47-.03v-1.205h2.588v7.118C56.278 64 55.058 65 52.866 65c-.926 0-2.147-.177-2.764-.486V62.47l1.397-.118v.707c0 .279.073.426.338.529.28.103.603.147 1.044.147 1.353 0 1.897-.824 1.897-2.162v-1.118z" fill="#FFF" fill-rule="evenodd"/></svg>