<svg width="16" height="16" viewBox="0 0 16 16" xmlns="http://www.w3.org/2000/svg"><title>Shape</title><path d="M8.035.07a7.964 7.964 0 0 0 0 15.93 7.964 7.964 0 1 0 0-15.93zm4.878 12.843a6.853 6.853 0 0 1-4.878 2.02 6.857 6.857 0 0 1-4.878-2.02 6.853 6.853 0 0 1-2.02-4.878c0-1.843.718-3.574 2.02-4.878a6.853 6.853 0 0 1 4.878-2.02c1.842 0 3.575.718 4.878 2.02a6.85 6.85 0 0 1 2.02 4.878 6.855 6.855 0 0 1-2.02 4.878zM11.2 7.467H8.533v-3.74a.534.534 0 0 0-1.066 0V8c0 .294.24.533.533.533h3.2a.534.534 0 0 0 0-1.066z" fill="#7E7E7E" fill-rule="evenodd"/></svg>