<svg width="16" height="16" viewBox="0 0 16 16" xmlns="http://www.w3.org/2000/svg"><title>Shape</title><path d="M15.942 2.812a.987.987 0 0 0-.94-.708h-1v1.552c0 .827-.674 1.5-1.5 1.5-.828 0-1.5-.673-1.5-1.5V2.104H4.995v1.552c0 .827-.673 1.5-1.5 1.5s-1.5-.673-1.5-1.5V2.104H1c-.448 0-.814.3-.94.708H0V15a1 1 0 0 0 1 1h14a1 1 0 0 0 1-1V2.812h-.058zM15.002 15H1V7h14v8zM3.495 4.156a.5.5 0 0 0 .5-.5V.5a.5.5 0 0 0-1 0v3.156a.5.5 0 0 0 .5.5zm9.005 0a.5.5 0 0 0 .5-.5V.5a.5.5 0 0 0-1 0v3.156a.5.5 0 0 0 .5.5z" fill="#7E7E7E" fill-rule="evenodd"/></svg>