<svg width="24" height="24" viewBox="0 0 24 24" xmlns="http://www.w3.org/2000/svg"><path d="M20.645 9.512a8.93 8.93 0 0 0-.77-1.87l1.49-3.136a12.12 12.12 0 0 0-1.87-1.87l-3.137 1.49a8.977 8.977 0 0 0-1.87-.77L13.322.075A12.002 12.002 0 0 0 12 0c-.447 0-.888.028-1.322.076l-1.166 3.28a8.998 8.998 0 0 0-1.868.77l-3.138-1.49a12.12 12.12 0 0 0-1.87 1.87l1.49 3.136a8.977 8.977 0 0 0-.77 1.87l-3.28 1.166C.028 11.112 0 11.553 0 12c0 .447.028.888.076 1.322l3.28 1.166a8.93 8.93 0 0 0 .772 1.87l-1.49 3.136c.553.69 1.18 1.32 1.87 1.87l3.136-1.49a8.977 8.977 0 0 0 1.87.77l1.166 3.28c.432.047.873.076 1.32.076.447 0 .888-.03 1.322-.077l1.166-3.28a8.93 8.93 0 0 0 1.87-.77l3.136 1.49c.69-.553 1.32-1.18 1.87-1.87l-1.49-3.137a8.977 8.977 0 0 0 .77-1.87l3.28-1.166c.047-.432.076-.873.076-1.32 0-.447-.03-.888-.077-1.322l-3.278-1.166zM12 18a6 6 0 1 1 0-12 6 6 0 0 1 0 12zm-3-6a3 3 0 1 0 6 0 3 3 0 0 0-6 0z" fill="#2CE6CE" fill-rule="evenodd"/></svg>