<svg width="24" height="24" viewBox="0 0 24 24" xmlns="http://www.w3.org/2000/svg"><title>Shape</title><path d="M12 0C5.373 0 0 5.373 0 12s5.373 12 12 12 12-5.373 12-12S18.627 0 12 0zm0 22.5C6.21 22.5 1.5 17.79 1.5 12S6.21 1.5 12 1.5 22.5 6.21 22.5 12 17.788 22.5 12 22.5zm5.256-15.273a1.05 1.05 0 0 0-1.453.305l-5.064 7.738-2.422-2.241a1.052 1.052 0 0 0-1.485.058 1.049 1.049 0 0 0 .059 1.484l3.346 3.096c.013.01.027.013.04.024.03.024.047.057.079.08.045.03.096.035.144.056.057.027.112.053.173.07a.993.993 0 0 0 .175.027c.085.009.168.009.252-.003.035-.006.068-.015.102-.024.104-.026.2-.066.294-.123.017-.011.03-.023.047-.034.061-.041.127-.073.18-.13.037-.04.054-.093.084-.138.001-.002.004-.003.004-.005l5.748-8.785a1.052 1.052 0 0 0-.303-1.455z" fill="#4A4A4A" fill-rule="evenodd"/></svg>