<svg width="16" height="16" viewBox="0 0 16 16" xmlns="http://www.w3.org/2000/svg"><path d="M14.987 0c-.56 0-1.013.454-1.013 1.013v2.362C12.832 1.992 11.516 0 7.894 0 3.542 0 0 3.54 0 7.894c0 4.353 3.542 7.894 7.894 7.894a7.885 7.885 0 0 0 7.502-5.432 1.033 1.033 0 0 0-1.96-.645 5.825 5.825 0 0 1-5.542 4.017 5.838 5.838 0 0 1-5.832-5.832c0-3.216 2.616-5.82 5.832-5.82 2.277 0 3.542 1.417 4.574 2.903H9.92a1.013 1.013 0 0 0 0 2.026h5.067A1.01 1.01 0 0 0 16 5.994V1.01C16 .455 15.546 0 14.987 0z" fill="none"/></svg>