<svg width="48" height="48" viewBox="0 0 48 48" xmlns="http://www.w3.org/2000/svg"><path d="M1.467 25.797l5.205-.192a13.298 13.298 0 0 0 2.118 2.172l-.342 5.21c.57.325 1.158.625 1.776.892.615.266 1.24.485 1.866.68l3.555-3.825c1.017.13 2.03.147 3.03.048L22.11 34.7c1.28-.35 2.517-.842 3.687-1.466l-.19-5.208a13.4 13.4 0 0 0 2.17-2.118l5.21.342c.325-.57.625-1.158.892-1.776.266-.615.485-1.24.68-1.866l-3.825-3.555c.13-1.017.147-2.03.048-3.03l3.918-3.435A17.866 17.866 0 0 0 33.235 8.9l-5.208.19a13.4 13.4 0 0 0-2.118-2.17l.342-5.21a18.172 18.172 0 0 0-1.776-.89 18.32 18.32 0 0 0-1.866-.68l-3.552 3.826a13.487 13.487 0 0 0-3.03-.048L12.588 0C11.308.35 10.07.843 8.9 1.467l.19 5.205a13.38 13.38 0 0 0-2.17 2.115l-5.21-.34c-.324.57-.624 1.16-.89 1.777a18.32 18.32 0 0 0-.68 1.866l3.826 3.555a13.487 13.487 0 0 0-.048 3.03L0 22.11c.35 1.278.843 2.517 1.467 3.687zM20.913 9.084a9.002 9.002 0 1 1-7.13 16.53 9.002 9.002 0 0 1 7.13-16.53zM12.85 17.35a4.5 4.5 0 1 0 9 0 4.5 4.5 0 0 0-9 0zM45.062 35.32l-1.242-.44.568-1.195 1.305-2.745a10.572 10.572 0 0 0-1.638-1.638L41.31 30.61l-1.194.566-.44-1.242-1.02-2.87A11.27 11.27 0 0 0 37.5 27c-.39 0-.777.024-1.158.066l-1.02 2.87-.44 1.243-1.195-.568-2.745-1.305a10.572 10.572 0 0 0-1.638 1.638l1.305 2.745.566 1.194-1.242.44-2.87 1.02c-.04.38-.064.766-.064 1.156 0 .39.024.777.066 1.155l2.87 1.02 1.243.44-.568 1.195-1.305 2.745a10.572 10.572 0 0 0 1.638 1.638l2.745-1.305 1.194-.567.44 1.243 1.02 2.87c.38.043.766.067 1.156.067.39 0 .777-.024 1.158-.066l1.02-2.87.44-1.243 1.195.568 2.745 1.305a10.572 10.572 0 0 0 1.638-1.638L44.39 41.31l-.566-1.194 1.242-.44 2.87-1.02c.04-.38.064-.766.064-1.156 0-.39-.024-.777-.066-1.158l-2.87-1.02zM37.5 39.75a2.25 2.25 0 1 1 .002-4.502 2.25 2.25 0 0 1-.002 4.502z" fill-rule="evenodd"/></svg>
