<svg width="20" height="24" viewBox="0 0 20 24" xmlns="http://www.w3.org/2000/svg"><path d="M18.803 0H10.8c-.23.012-.75.37-.818.438L.438 9.98a1.497 1.497 0 0 0 0 2.117l1.19 1.19-1.19 1.192a1.497 1.497 0 0 0 0 2.116l6.966 6.966a1.49 1.49 0 0 0 1.06.438c.38 0 .765-.145 1.057-.438l9.544-9.544c.07-.067.428-.53.428-.817V.746c.02-.418-.278-.745-.69-.745zm-.794 12.948l-.007.012-9.54 9.544L1.5 15.54l1.19-1.19 4.716 4.715a1.49 1.49 0 0 0 1.06.438c.38 0 .765-.145 1.057-.438l8.49-8.488v2.37zm0-6.95v2.45l-.007.013-9.54 9.545L1.5 11.042l9.48-9.478c.028-.02.062-.044.097-.065h6.934v4.498zm-3-2.255a.75.75 0 1 0 1.5 0 .75.75 0 0 0-1.5 0z"  fill-rule="evenodd"/></svg>
