<svg width="13" height="16" viewBox="0 0 13 16" xmlns="http://www.w3.org/2000/svg"><path d="M12.535 0H7.2c-.153.008-.5.247-.546.292L.29 6.654a.998.998 0 0 0 0 1.41l.795.795-.794.792a.998.998 0 0 0 0 1.412l4.646 4.644a.995.995 0 0 0 1.41 0l6.364-6.363c.045-.044.285-.352.285-.544V.498a.456.456 0 0 0-.46-.497zm-.53 8.632l-.003.008-6.36 6.362L.998 10.36l.794-.794 3.144 3.144a.995.995 0 0 0 1.41 0l5.66-5.66v1.582zm0-4.633v1.633l-.003.008-6.36 6.363L.998 7.36l6.32-6.317A.917.917 0 0 1 7.383 1h4.623v3zm-1.998-1.505a.5.5 0 1 0 1 0 .5.5 0 0 0-1 0z" fill-rule="evenodd"/></svg>
