<svg width="16" height="16" viewBox="0 0 16 16" xmlns="http://www.w3.org/2000/svg"><title>BoxChecked</title><path d="M13.538 14.77H1.231V2.461h9.078l.768-1.231H1.23C.55 1.23 0 1.782 0 2.46V14.77C0 15.45.551 16 1.23 16h12.308c.68 0 1.231-.551 1.231-1.23V6.641l-1.23 1.973v6.154zM15.61.14a.859.859 0 0 0-1.192.25l-6.69 9.652L5.14 7.088a.862.862 0 1 0-1.17 1.264l3.11 3.55c.02.033.051.057.076.087l.078.09c.01.008.023.01.032.02.025.02.04.046.066.065.053.034.11.056.168.077.014.005.025.014.038.017a.854.854 0 0 0 .265.046l.011-.002a.853.853 0 0 0 .638-.27c.032-.034.044-.076.07-.114l.004-.004L15.86 1.333A.862.862 0 0 0 15.61.14z" fill="#4A4A4A" fill-rule="evenodd"/></svg>