<svg width="16" height="16" viewBox="0 0 16 16" xmlns="http://www.w3.org/2000/svg"><path d="M13.763 6.34a5.953 5.953 0 0 0-.514-1.245l.993-2.09a8.08 8.08 0 0 0-1.247-1.248l-2.09.994a5.985 5.985 0 0 0-1.247-.513L8.88.05A8 8 0 0 0 8 0a8 8 0 0 0-.88.05l-.78 2.187a6 6 0 0 0-1.244.514l-2.092-.993a8.08 8.08 0 0 0-1.247 1.247l.994 2.09c-.215.39-.387.81-.513 1.247L.05 7.12A8 8 0 0 0 0 8a8 8 0 0 0 .05.88l2.188.78c.126.437.297.854.514 1.245l-.994 2.09c.37.46.787.88 1.247 1.248l2.09-.994c.39.215.81.387 1.247.513l.778 2.187c.288.03.582.05.88.05a8 8 0 0 0 .88-.05l.78-2.188a5.953 5.953 0 0 0 1.245-.514l2.09.994c.46-.37.88-.787 1.248-1.247l-.994-2.09c.215-.39.387-.81.513-1.247l2.187-.778c.03-.288.05-.582.05-.88a8 8 0 0 0-.05-.88l-2.187-.78zM8 12a4 4 0 1 1 0-8 4 4 0 0 1 0 8zM6 8a2 2 0 1 0 4 0 2 2 0 0 0-4 0z" fill-rule="evenodd"/></svg>
