<svg width="21" height="24" viewBox="0 0 21 24" xmlns="http://www.w3.org/2000/svg"><path d="M5.276 18.755c-.928 0-1.76-.403-2.346-1.035-1.035-1.115-1.79-.413-2.016.685-1.145 5.595.51 5.552.51 5.552L17.34 24a2.994 2.994 0 0 0 2.994-2.995v-10.48c0-1.655.192-3.997-1.317-3.32-1.143.514-2.645.82-4.998.335-1.1-.226-1.8-.98-.686-2.015A3.19 3.19 0 0 0 14.37 3.18a3.18 3.18 0 0 0-6.358 0c0 .993.518 1.813 1.172 2.465.394.392 1.433 1.418-1.226 1.886-2.925.515-5.73-1.138-6.293-.538C1.29 7.39.26 8.886.922 12.398c.503 2.672 1.497 1.566 1.888 1.172.65-.654 1.472-1.172 2.466-1.172a3.18 3.18 0 0 1 0 6.357z" fill="#FFF" fill-rule="evenodd"/></svg>