<svg width="24" height="22" viewBox="0 0 24 22" xmlns="http://www.w3.org/2000/svg"><path d="M1.342 20.663c.124.266.392.435.685.435 2.17 0 4.004-.528 6.088-1.757 1.012.162 3.008.36 3.885.36 6.617 0 12-4.418 12-9.85C24 4.416 18.617 0 12 0S0 4.417 0 9.85c0 2.56 1.235 5.034 3.408 6.867a13.108 13.108 0 0 1-1.96 3.14.76.76 0 0 0-.106.806zm.17-10.814c0-4.6 4.705-8.34 10.488-8.34 5.783 0 10.488 3.74 10.488 8.34 0 4.597-4.705 8.338-10.488 8.338-.868 0-3.126-.233-3.89-.38a.783.783 0 0 0-.536.096c-1.408.862-2.637 1.354-3.952 1.563a14.373 14.373 0 0 0 1.405-2.71.754.754 0 0 0-.248-.877C2.67 14.284 1.51 12.14 1.51 9.85z" fill="none" fill-rule="evenodd"/></svg>