<svg width="24" height="24" viewBox="0 0 24 24" xmlns="http://www.w3.org/2000/svg"><path d="M10.5 3.75C10.5 1.745 8.757 0 6.75 0 4.743 0 3 1.744 3 3.75c0 2.01 1.743 3.752 3.75 3.752 2.007 0 3.75-1.743 3.75-3.75zm2.625 14.256c0-6.002-3.114-9.003-6.563-9.003-3.448 0-6.562 3-6.562 9.003 0 4.11 13.125 4.11 13.125 0zm4.5-7.585c2.007 0 3.75-1.743 3.75-3.75 0-2.008-1.743-3.752-3.75-3.752-2.007 0-3.75 1.744-3.75 3.752 0 2.007 1.743 3.75 3.75 3.75zm-.188 1.5c-1.036 0-2.03.306-2.93.85.545 1.463.868 3.2.868 5.236 0 2.02-1.347 3.595-3.659 4.495C14.584 24.93 24 24.41 24 20.925c0-6.002-3.114-9.003-6.563-9.003z" fill-rule="evenodd"/></svg>
