<svg version="1" xmlns="http://www.w3.org/2000/svg" width="14.6" height="16" viewBox="0 0 91 100"><path d="M0 53.572C-.016 40.7 5.32 30.962 10.48 24.78c5.187-6.233 10.224-9.236 10.676-9.516 3.368-1.993 7.697-.85 9.667 2.555 1.966 3.39.85 7.745-2.49 9.75h.002s-.004 0-.015.007c-.01.004-.023.014-.042.026a24.24 24.24 0 0 0-1.94 1.406h.002a34.658 34.658 0 0 0-5.03 4.944c-3.67 4.467-7.166 10.798-7.18 19.616.002 8.89 3.546 16.883 9.313 22.723 5.78 5.83 13.687 9.416 22.48 9.418 8.793 0 16.7-3.586 22.478-9.416 5.77-5.84 9.315-13.833 9.318-22.722-.016-8.547-3.294-14.742-6.837-19.194-3.372-4.22-6.98-6.572-7.34-6.79-.004-.004-.01-.005-.012-.007l-.01-.006c-.004-.003-.008-.003-.008-.003-3.337-2.004-4.453-6.36-2.49-9.75 1.973-3.405 6.3-4.55 9.668-2.556.454.28 5.49 3.282 10.678 9.516 5.162 6.182 10.496 15.92 10.48 28.79-.002 25.64-20.562 46.42-45.92 46.43C20.563 99.99.005 79.208 0 53.572z"/><path d="M38.86 50V7.144C38.86 3.2 42.02 0 45.924 0c3.9 0 7.062 3.2 7.062 7.143V50h.002c0 3.942-3.166 7.142-7.065 7.142-3.903 0-7.066-3.2-7.066-7.14z"/></svg>