<svg width="24" height="18" viewBox="0 0 24 18" xmlns="http://www.w3.org/2000/svg"><title>Shape</title><path d="M22.5 3h-3s-.867 0-1.5-1.5C17.678.736 17.328 0 16.5 0h-6C9.672 0 9.312.732 9 1.5 8.391 3 7.5 3 7.5 3H6a1.5 1.5 0 0 0-1.5-1.5H3A1.5 1.5 0 0 0 1.5 3 1.5 1.5 0 0 0 0 4.5v12A1.5 1.5 0 0 0 1.5 18h21a1.5 1.5 0 0 0 1.5-1.5v-12A1.5 1.5 0 0 0 22.5 3zm0 13.5h-21v-6h6.825c.367 2.541 2.532 4.5 5.175 4.5 2.707 0 4.91-2.056 5.193-4.688H22.5V16.5zM9.75 9.75A3.754 3.754 0 0 1 13.5 6a3.754 3.754 0 0 1 3.75 3.75 3.755 3.755 0 0 1-3.75 3.75 3.755 3.755 0 0 1-3.75-3.75zM18.675 9c-.367-2.541-2.532-4.5-5.175-4.5S8.692 6.459 8.325 9H1.5V4.5h6c.876 0 2.16-.637 2.889-2.436.125-.305.209-.473.264-.564h5.688c.1.165.23.47.277.584C17.59 4.383 19.19 4.5 19.5 4.5h3V9h-3.825zM3 6.765a.75.75 0 1 0 1.5 0 .75.75 0 0 0-1.5 0z" fill="#FFF" fill-rule="evenodd"/></svg>