<svg width="20" height="20" viewBox="0 0 20 20" xmlns="http://www.w3.org/2000/svg"><defs><filter x="-50%" y="-50%" width="200%" height="200%" filterUnits="objectBoundingBox" id="a"><feOffset in="SourceAlpha" result="shadowOffsetOuter1"/><feGaussianBlur stdDeviation="1" in="shadowOffsetOuter1" result="shadowBlurOuter1"/><feColorMatrix values="0 0 0 0 0 0 0 0 0 0 0 0 0 0 0 0 0 0 0.5 0" in="shadowBlurOuter1" result="shadowMatrixOuter1"/><feMerge><feMergeNode in="shadowMatrixOuter1"/><feMergeNode in="SourceGraphic"/></feMerge></filter></defs><path d="M30.792 36.722c.44.333.986.532 1.58.532a2.627 2.627 0 1 0-2.627-2.627v.002l-6.483 3.134a2.615 2.615 0 0 0-1.635-.574 2.627 2.627 0 0 0 0 5.253 2.62 2.62 0 0 0 1.422-.42l6.696 3.238v.003a2.627 2.627 0 1 0 2.627-2.627c-.594 0-1.14.2-1.58.532l-6.55-3.166c.004-.04.006-.078.007-.118l6.542-3.162z" filter="url(#a)" transform="translate(-17 -30)" fill="#4A4A4A" fill-rule="evenodd"/></svg>
