<svg width="129" height="148" viewBox="0 0 129 148" xmlns="http://www.w3.org/2000/svg"><path d="M104.64 5.274c-2.98 0-5.694.652-7.897 1.446-10.555 3.808-19.82 14.598-23.602 27.488-1.7 5.798-3.085 15.702-3.543 25.614C78.01 59.19 86.07 57.55 92.582 54.9c-1.773-5.447-6.06-10.23-12.22-13.157a2.645 2.645 0 0 1 2.272-4.778c7.297 3.468 12.456 9.117 14.777 15.63 12.156-6.668 24.56-19.608 25.292-30.915.34-5.243-2.03-9.613-7.042-12.99-3.77-2.54-7.572-3.416-11.02-3.416m-71.137 50.6c6.717 2.374 14.873 3.752 23.275 4.134-.062-8.936-.814-18.496-2.207-26.804C52.29 19.586 40.54 10.16 29.907 6.862 21.262 4.18 13.546 5.222 9.27 9.656 5.12 13.952 5.06 19.73 5.74 23.82c1.892 11.4 11.448 24.167 22.23 29.696.208.107.42.213.632.317 2.23-7.24 7.527-13.157 15.318-16.744a2.645 2.645 0 0 1 2.212 4.804c-6.593 3.036-10.932 7.922-12.63 13.98m-.794 5.32a25.73 25.73 0 0 0 .204 4.038c1.62 12.622 8.52 23.59 13.95 25.91 1.666.713 3.044.598 4.34-.358 3.42-2.52 5.214-12.93 5.53-25.46-8.58-.378-16.934-1.755-24.024-4.13m36.735 3.965c-.115 10.777 1.03 20.672 4.246 24.212 2.75 3.024 4.532 2.57 5.118 2.42 5.354-1.366 11.174-14.54 14.158-26.847.382-1.577.552-3.157.52-4.715-6.982 2.673-15.363 4.316-24.043 4.93m8.542 32.03c-2.305 0-5.193-.942-8.21-4.26-4.314-4.744-5.76-15.836-5.673-27.524-.696.015-1.39.024-2.086.026-.26 13.117-2.188 25.567-7.676 29.61-2.796 2.062-6.19 2.405-9.558.965C36.917 92.642 29.4 79.42 27.665 65.905a30.113 30.113 0 0 1-.125-6.726 44.01 44.01 0 0 1-1.984-.956C13.424 52.004 2.662 37.584.52 24.687-.74 17.103.97 10.634 5.463 5.98c5.694-5.9 15.418-7.457 26.01-4.17C42.762 5.31 56.952 15.407 59.788 32.33c.996 5.936 2.12 16.73 2.25 27.788.735-.003 1.47-.014 2.204-.03.483-10.88 2.11-21.53 3.824-27.37C72.372 18.04 82.673 6.172 94.948 1.744c8.35-3.01 16.754-2.102 23.67 2.558 6.587 4.44 9.826 10.568 9.363 17.72-.91 14.053-15.677 28.865-29.336 35.908.302 2.7.137 5.482-.536 8.262-1.584 6.535-7.564 28.063-17.992 30.726a8.59 8.59 0 0 1-2.13.27zM6.162 137.684H9.31c3.28 0 4.353-1.506 4.353-3.548 0-2.244-1.54-3.45-4.186-3.45H6.162v6.998zm0-9.98H8.64c2.88 0 4.053-1.34 4.053-3.114 0-2.41-1.642-2.945-3.818-2.945H6.162v6.06zm3.45-9.142c3.784 0 7.233 1.14 7.233 5.594 0 2.21-1.273 3.75-3.08 4.688 2.51.635 4.22 2.377 4.22 5.325 0 4.352-3.015 6.663-8.575 6.663H0v-2.712l1.106-.1c.57-.066.97-.268.97-.938V121.51l-1.908-.1v-2.847h9.444zm26.32 22.27H30.51v-2.177c-1.172 1.676-3.215 2.613-5.425 2.613-3.35 0-5.19-1.844-5.19-5.794v-7.737c0-.703-.27-.905-.838-.938l-1.072-.067v-2.745h5.894v10.615c0 2.042.335 3.583 2.48 3.583 2.343 0 3.582-1.574 3.582-3.316v-7.066c0-.737-.2-.97-.84-1.004l-1.07-.067v-2.745h5.894v13.126c0 .736.2.905.837.97l1.173.102v2.645zm6.364-20.394v3.55h4.455l-.336 2.812h-4.118v8.807c0 2.04.803 2.644 2.177 2.644.904 0 1.74-.367 2.278-.702l1.005 2.58c-1.004.7-2.68 1.17-4.254 1.17-5.223 0-5.19-3.215-5.19-5.56v-8.94h-2.377l.335-2.446c2.344-.2 3.148-2.01 3.85-3.917h2.178zm11.822 0v3.55h4.453l-.335 2.812h-4.117v8.807c0 2.04.803 2.644 2.177 2.644.904 0 1.74-.367 2.276-.702l1.006 2.58c-1.005.7-2.68 1.17-4.254 1.17-5.224 0-5.19-3.215-5.19-5.56v-8.94h-2.377l.334-2.446c2.343-.2 3.147-2.01 3.85-3.917h2.178zm13.495 5.892c-2.68 0-3.885 2.58-3.986 5.057 2.48-.034 5.995-.603 5.995-3.182 0-1.24-.803-1.876-2.01-1.876zm5.693 1.81c0 5.156-5.593 6.028-9.544 6.06.134 2.178 1.272 3.952 4.12 3.952 1.975 0 3.415-.904 4.22-1.474l1.27 2.713c-.534.47-2.744 1.875-5.892 1.875-5.694 0-7.904-3.483-7.904-8.472 0-4.956 2.78-9.31 8.272-9.31 3.28 0 5.458 1.675 5.458 4.656zm3.27-.336c0-.737-.202-.972-.836-1.004l-1.408-.1v-2.713h5.66v2.51a5.235 5.235 0 0 1 4.757-3.013c1.102 0 2.107.2 3.212.736v4.99l-3.115.234v-1.54c0-.403-.067-.704-.335-.838-.3-.134-.534-.167-.903-.167-1.81 0-3.05 1.438-3.05 3.382v7.77l2.915.133v2.645H74.5v-2.545l1.105-.1c.635-.067.97-.268.97-1.106v-9.276zm16.334-1.004h-2.88v-2.813h2.88v-1.274c0-2.678.603-6.095 5.792-6.095 1.475 0 3.517.538 4.656 1.173l-.972 2.68c-.97-.503-2.242-.838-3.18-.838-1.675 0-2.31.94-2.31 2.78v1.574h4.955v2.812h-4.955v11.22l2.813.133v2.678h-8.874v-2.545l1.104-.1c.637-.067.972-.27.972-1.106v-10.28zm17.384 11.252l1.908.1v2.68h-7.97v-2.546l1.106-.1c.602-.067.97-.268.97-1.07v-16.51c0-.605-.334-.77-.837-.806l-1.17-.065v-2.78h5.994v21.097zm14.432-.402c-1.172 1.674-3.215 2.613-5.424 2.613-3.35 0-5.19-1.843-5.19-5.793v-6.732c0-.704-.27-.906-.838-.938l-1.072-.067v-2.746h5.893v9.61c0 2.043.335 3.584 2.48 3.584 2.343 0 3.58-1.574 3.58-3.316v-6.062c0-.737-.2-1.004-.836-1.004l-1.072-.067v-2.746h5.894v16.207c0 5.526-2.78 7.803-7.77 7.803-2.11 0-4.888-.402-6.294-1.106v-4.654l3.18-.27v1.61c0 .635.17.97.77 1.205.636.234 1.374.335 2.38.335 3.08 0 4.318-1.876 4.318-4.923v-2.545z" fill="#FFF" fill-rule="evenodd"/></svg>