<svg xmlns="http://www.w3.org/2000/svg" width="473" height="592" viewBox="0 0 473 592"><ellipse fill="#156E78" cx="260" cy="569" rx="208" ry="23"/><path fill="#716558" d="M395.163 30.01L277.793.174a5.596 5.596 0 0 0-6.804 4.046l-19.95 78.465a5.596 5.596 0 0 0 4.046 6.803l30.166 7.67-3.53 13.446a13.84 13.84 0 0 0 1.456 10.562 13.84 13.84 0 0 0 8.484 6.456l29.064 7.63c1.183.31 2.368.457 3.536.457 6.18 0 11.842-4.15 13.482-10.4l3.645-13.884 31.065 7.897a5.597 5.597 0 0 0 6.804-4.046l19.945-78.466a5.597 5.597 0 0 0-4.045-6.803zm-66.326 92.96a4.73 4.73 0 0 1-5.767 3.368l-29.064-7.63a4.69 4.69 0 0 1-2.868-2.19 4.68 4.68 0 0 1-.5-3.574l3.548-13.517 38.276 9.73-3.625 13.813z"/><path opacity=".25" d="M324.025 131.957l-29.063-7.63c-3.59-.94-6.604-3.234-8.486-6.455a13.843 13.843 0 0 1-1.456-10.562l3.53-13.447-30.167-7.668a5.596 5.596 0 0 1-4.046-6.803L274.283.926c.05-.195.11-.385.18-.57a5.586 5.586 0 0 0-3.474 3.865L251.04 82.69a5.596 5.596 0 0 0 4.046 6.803l30.166 7.67-3.53 13.446a13.84 13.84 0 0 0 1.456 10.562 13.84 13.84 0 0 0 8.484 6.456l29.064 7.63c1.183.31 2.368.457 3.536.457 4.534 0 8.782-2.24 11.375-5.895a13.96 13.96 0 0 1-8.08 2.6 13.92 13.92 0 0 1-3.536-.457zm-29.84-32.53l38.277 9.73-3.625 13.813c-.005.018-.013.034-.016.052a4.726 4.726 0 0 0 3.31-3.346l3.63-13.813-40.555-10.31-1.017 3.874zm81.568 16.603l-33.342-8.476-1.015 3.873 31.065 7.897a5.596 5.596 0 0 0 6.624-3.476 5.56 5.56 0 0 1-3.33.182z"/><circle fill="#FAC7B5" cx="302.965" cy="132.731" r="14.316"/><circle opacity=".1" cx="302.965" cy="132.731" r="14.316"/><path fill="#FAC7B5" d="M141.046 219.118l20.88-4.072 4.65 23.843-20.88 4.07z"/><path opacity=".1" d="M141.046 219.118l20.88-4.072 4.65 23.843-20.88 4.07z"/><path fill="#716558" d="M448.648 474.016c1.992.492 2.73-.528 1.636-2.266l-20.37-32.43a3.744 3.744 0 0 0-5.147-1.173l-9.842 6.183a3.743 3.743 0 0 0-1.175 5.146l9.86 15.693c1.092 1.735 3.616 3.56 5.608 4.053l19.43 4.79zm20.302-47.612c1.578 1.313 1.194 2.512-.852 2.66l-38.193 2.832a3.742 3.742 0 0 1-3.996-3.447l-.86-11.597a3.74 3.74 0 0 1 3.444-3.995l18.484-1.37c2.046-.15 5.01.8 6.59 2.11l15.38 12.803z"/><path fill="#FAC7B5" d="M211.874 148.627c-.163 0-.32.017-.483.024-3.77-32.702-29.23-57.99-60.07-57.99s-56.293 25.29-60.07 57.993c-.16-.007-.32-.023-.48-.023-5.92 0-10.717 4.797-10.717 10.716 0 5.917 4.8 10.716 10.717 10.716.39 0 .77-.023 1.147-.063 5.48 30.5 29.993 53.502 59.406 53.502 29.414 0 53.925-23.003 59.407-53.503.378.04.76.062 1.148.062 5.92 0 10.717-4.798 10.717-10.716 0-5.92-4.8-10.717-10.718-10.717z"/><path opacity=".1" d="M154.614 217.57c-29.413 0-53.925-23.004-59.406-53.503-.378.04-.76.063-1.148.063-5.918 0-10.716-4.798-10.716-10.716 0-.67.07-1.323.187-1.96a10.675 10.675 0 0 0-3.48 7.89c0 5.917 4.8 10.716 10.718 10.716.39 0 .77-.023 1.148-.063 5.48 30.5 29.993 53.504 59.406 53.504 23.074 0 43.128-14.16 53.348-34.984-10.898 17.535-29.245 29.056-50.053 29.056zm60.555-53.44a10.9 10.9 0 0 1-1.15-.063 71.98 71.98 0 0 1-1.34 5.952 10.71 10.71 0 0 0 9.722-8.72 10.668 10.668 0 0 1-7.235 2.828z"/><path fill="#FFF" d="M122.36 176.178c0 15.995 12.965 28.96 28.96 28.96 15.994 0 28.96-12.965 28.96-28.96h-57.92z"/><path d="M138.72 153.712a1.646 1.646 0 0 1-1.645-1.646c0-3.707-3.016-6.722-6.722-6.722s-6.72 3.015-6.72 6.722a1.646 1.646 0 0 1-3.293 0c0-5.52 4.49-10.013 10.012-10.013s10.013 4.492 10.013 10.013a1.643 1.643 0 0 1-1.644 1.646zm40.71 0a1.646 1.646 0 0 1-1.645-1.646c0-3.707-3.015-6.722-6.72-6.722s-6.723 3.015-6.723 6.722a1.645 1.645 0 0 1-3.292 0c0-5.52 4.492-10.013 10.013-10.013s10.013 4.492 10.013 10.013c0 .91-.737 1.646-1.645 1.646z" fill="#5A4A42"/><path fill="#5A4A42" d="M180.022 92.202c-8.035-4.644-19.217-9.364-34.027-11.97-35.858-6.313-43.14 1.94-63.043-7.77 0 0 13.786 20.042 29.926 26.045-15.107 11.786-25.484 30.318-27.387 51.515a10.656 10.656 0 0 1 5.28-1.395c2.19 0 4.227.66 5.924 1.79 2.167-21.914 14.894-40.364 32.413-48.967 14.558 1.544 35.382 2.586 50.02 3.182 14.598 9.515 24.894 26.28 26.823 45.787a10.664 10.664 0 0 1 5.926-1.794c1.918 0 3.713.51 5.27 1.392-2.29-25.495-16.833-47.137-37.123-57.82z"/><path opacity=".35" d="M87.792 74.572a58.506 58.506 0 0 1-4.84-2.11s13.785 20.042 29.925 26.045c-15.107 11.786-25.484 30.318-27.387 51.515a10.725 10.725 0 0 1 3.42-1.23c2.187-20.682 12.446-38.728 27.26-50.286-12.936-4.812-24.354-18.634-28.378-23.934zm4.635 74.185c1.558.243 3.004.82 4.264 1.66.05-.474.11-.944.165-1.415-.89-.24-1.826-.376-2.793-.376-.554 0-1.1.048-1.632.13zm16.393-71.14c2.717.03 5.58-.033 8.765-.052-3.207-.023-6.08.032-8.765.053zm108.195 71.175c-.6-.105-1.215-.166-1.846-.166-.568 0-1.12.045-1.664.13 1.304.2 2.532.635 3.636 1.262-.037-.41-.086-.817-.13-1.226zm-34.596-44.16c-14.64-.597-35.465-1.64-50.024-3.183-.182.09-.36.184-.543.276 14.342 1.39 33.53 2.344 47.27 2.903 14.597 9.515 24.893 26.28 26.822 45.787a10.68 10.68 0 0 1 3.135-1.415c-2.276-18.9-12.42-35.087-26.662-44.372z"/><ellipse transform="rotate(-24.384 293.662 128.266)" fill="#FAC7B5" cx="293.611" cy="128.273" rx="8.43" ry="5.354"/><path opacity=".1" fill="#231F20" d="M301.29 124.792a3.62 3.62 0 0 0-.84-1.138c-1 1.145-2.384 2.184-4.05 2.938-3.553 1.61-7.232 1.428-9.05-.258-1.543 1.766-2.16 3.785-1.417 5.42 1.22 2.693 5.648 3.317 9.888 1.396 4.244-1.922 6.69-5.666 5.47-8.358z"/><ellipse transform="rotate(14.703 299.17 116.945)" fill="#FAC7B5" cx="299.122" cy="116.921" rx="5.266" ry="9.462"/><ellipse transform="rotate(14.715 309.28 119.573)" fill="#FAC7B5" cx="309.307" cy="119.594" rx="5.265" ry="9.461"/><ellipse transform="rotate(14.703 319.545 122.294)" fill="#FAC7B5" cx="319.493" cy="122.268" rx="5.266" ry="9.461"/><path fill="#FFE780" d="M350.663 458.266c-3.924-.514-19.658-4.81-57.35-38.504-9-8.046-17.312-16.048-23.96-22.66 10.55-5.324 26.838-13.248 44.283-20.613 53.256-22.49 66.505-18.638 67.572-18.254 14.196 8.03 32.832 41.833 41.552 63.33l31.73-12.833c-.254-.628-6.325-15.565-15.802-32.49-13.785-24.62-27.18-40.313-40.95-47.978-11.49-6.396-32.73-10.365-95.538 15.9-32.006 13.385-60.05 28.455-61.23 29.09l7.22 13.393-19.35 17.88c.756.817 18.762 20.256 41.46 40.566 32.735 29.295 57.57 44.703 75.92 47.106 4.005.523 8 .76 11.95.76 36.347 0 68.924-20.06 70.436-21.003l-18.132-29.03c-.305.19-31.445 19.05-59.81 15.335z"/><path opacity=".1" d="M313.637 376.488c53.256-22.49 66.505-18.635 67.572-18.25 14.193 8.03 32.83 41.832 41.55 63.33l3.56-1.44c-7.775-21.94-27.76-59.162-41.365-67.776-3.495-1.665-10.795-4.285-65.1 15.54-17.787 6.492-43.673 20.848-54.473 25.644 1.12 1.23 2.293 2.51 3.51 3.825 9.874-4.835 31.588-15.32 44.743-20.87zm44.93 112.577a92.045 92.045 0 0 1-11.898-1.352c-18.21-3.31-42.25-19.928-73.496-50.808-16.93-16.733-31.024-32.79-36.717-39.416l-7.62 7.04c.756.814 18.762 20.253 41.46 40.563 32.735 29.295 57.57 44.703 75.92 47.106 4.005.523 8 .76 11.95.76 29.315 0 59.382-14.146 70.436-21.003-11.178 5.305-41.858 18.505-70.04 17.107z"/><path fill="#FAC7B5" d="M13.817 125.476C9.795 121.374-2.795 92.703.563 90.09c3.36-2.615 11.338 9.314 11.338 9.314s-4.736-20.794-1.59-21.7c3.148-.908 10.557 14.784 10.557 14.784s-2.962-21.938 1.4-22.426c4.36-.49 8.556 31.336 8.556 31.336S37.66 88.55 41.315 89.973c3.657 1.422-5.928 34.428-9.062 35.503-3.133 1.075-18.433 0-18.433 0z"/><path opacity=".1" d="M30.82 101.397s5.43-7.975 8.723-11.215c-2.383 1.178-5.28 5.42-7.06 8.338-1.46 2.215-1.662 2.877-1.662 2.877zm-14.2 23.663c-4.155-3.964-17.693-32.2-14.424-34.926.126-.106.265-.182.406-.247-.77-.26-1.472-.24-2.04.202-3.357 2.61 9.233 31.282 13.255 35.384 0 0 15.3 1.075 18.433 0 .208-.07.44-.283.7-.613-5.21.608-16.33.198-16.33.198zm4.245-32.573s-1.344-18.64 1.354-22.414c-3.018.45-2.466 11.3-1.87 17.74l.513 4.674zM11.9 99.404s-2.91-18.752-.81-21.626c-.28-.106-.545-.143-.78-.075-2.296.662-.4 11.887.797 17.924l.794 3.777z" fill="#231F20"/><path fill="#FFF" d="M285.148 137.9c-.068.223-7.437 22.984-29.068 45.934-29.86 31.682-71.14 48.43-122.69 49.777-28.395.74-50.79-7.08-66.59-23.25-30.837-31.555-28.797-85.514-28.738-86.86v-.03l-15.11-.774-15.124-.808c-.148 2.76-3.146 68.055 37.166 109.48 20.938 21.517 49.22 32.458 84.126 32.566 22.54 104.618 105.65 147.662 109.435 149.57l26.653-52.904.163.08c-.182-.093-18.49-9.736-37.603-30.56-19.466-21.204-32.715-45.86-39.554-73.52 12.13-3.11 23.674-7.18 34.554-12.23 21.083-9.788 39.705-23.167 55.35-39.767 26.783-28.413 35.627-56.66 35.99-57.85L285.15 137.9z"/><path opacity=".1" d="M242.505 405.595c-3.785-1.908-86.894-44.95-109.434-149.568-34.903-.11-63.185-11.05-84.123-32.567C16.492 190.11 12.11 141.3 11.71 122.093l-3.883-.208c-.148 2.76-3.146 68.055 37.166 109.48 20.938 21.517 49.22 32.458 84.126 32.566C151.66 368.55 234.77 411.596 238.55 413.5l26.653-52.9.163.08a5.99 5.99 0 0 1-.187-.1l-22.68 45.016zm39.56-208.898c-15.646 16.6-34.27 29.978-55.35 39.764-10.88 5.054-22.424 9.126-34.554 12.234.53 2.14 1.105 4.26 1.71 6.362 10.07-2.876 19.72-6.43 28.895-10.688 21.083-9.786 39.705-23.165 55.35-39.765 16.213-17.198 25.85-34.334 31.015-45.448-5.643 10.547-14.32 24.026-27.064 37.545zm-89.77 73.85c-23-14.932-32.18-37.805-32.18-37.805l-2.888-.67c9.398 25.326 24.193 41.945 40.65 52.747a165.966 165.966 0 0 1-5.583-14.275z"/><path fill="#FF2C82" d="M160.077 231.193s24.275 22.236 58.697 20.725c34.42-1.512 57.914-17.123 71.104-32.374l25.39-7.286-4.34 23.02s-83.945 63.947-153.742-3.44l2.89-.645z"/></svg>