<svg xmlns="http://www.w3.org/2000/svg" width="512" height="470" viewBox="0 0 512 470"><path d="M474.058 0H367.93v235.85H512L474.058 0zm-47.946 86.28c-16.75 0-30.33-13.622-30.33-30.428 0-16.807 13.58-30.43 30.33-30.43s30.33 13.623 30.33 30.43c0 16.806-13.58 30.428-30.33 30.428zM.11 239.653C-1.75 259.86 20.55 283.2 33.29 288.155c31.046 12.076 85.38 1.79 129.87 5.705 5.87 42.31-31.777 76.423-35.074 111.29-3.52 37.19 13.486 57.934 47.396 64.85h11.377c10.35-.964 8.51-26.16 10.427-37.057 3.395-19.298 9.146-36.68 19.906-49.408 11.377-13.457 23.797-18.998 34.12-32.425 5.76-7.49 9.116-17.89 14.22-27.02 12.188-21.804 38.933-87.88 65.415-98.702 4.704-1.922 13.247-2.43 18.012-1.902V24.726C292.445 12.632 234.59 1.882 167.898 0h-54.033c-10.65 2.51-26.135 1.123-37.918 5.706-11.652 4.533-34.635 21.51-37.918 36.138-1.706 7.595 2.056 17.025 0 25.678-3.49 14.67-26.167 21.018-27.49 37.09-1 12.107 11.458 25.536 10.425 37.09C19.78 154.97.463 162.024.11 174.985c-.406 14.977 17.047 22.273 16.115 36.138-.876 13.04-14.972 16.094-16.116 28.53z" fill="#1B828E"/></svg>
