<svg width="12" height="16" viewBox="0 0 12 16" xmlns="http://www.w3.org/2000/svg"><path d="M1.552 15.935h2.212v-4.938H.762l.79 4.938zm1-1.807c.348 0 .63.286.63.637a.635.635 0 0 1-.63.638.635.635 0 0 1-.633-.638c0-.35.282-.637.63-.637zm8.874-3.21c.04-.424-.426-.912-.69-1.016-.648-.252-1.78-.037-2.707-.12-.123-.885.662-1.6.73-2.33.074-.778-.28-1.212-.987-1.357h-.237c-.216.02-.178.548-.217.776-.072.405-.192.77-.416 1.035-.237.282-.496.398-.71.68-.12.156-.19.374-.297.565-.254.456-.81 1.84-1.363 2.066a.94.94 0 0 1-.375.04v4.16c1.176.254 2.38.48 3.77.518h1.126c.222-.052.545-.023.79-.12.243-.094.722-.45.79-.756.036-.158-.042-.356 0-.537.073-.306.546-.44.573-.776.02-.253-.24-.534-.218-.776.025-.278.427-.425.434-.696.01-.314-.355-.467-.335-.757.02-.273.313-.337.336-.597zM9.876 0h-2.21v4.938h3L9.877 0zm-1 1.806a.635.635 0 0 1-.63-.637c0-.353.282-.638.63-.638.35 0 .633.285.633.637a.634.634 0 0 1-.633.636zM.003 5.016c-.038.424.426.913.69 1.016.648.253 1.78.038 2.707.12.12.886-.663 1.6-.732 2.33-.073.778.28 1.213.988 1.357h.237c.215-.02.177-.548.217-.776.07-.404.19-.768.415-1.035.237-.282.496-.398.71-.68.12-.156.19-.374.297-.565.254-.456.81-1.84 1.363-2.066a.94.94 0 0 1 .375-.04V.517C6.093.265 4.887.04 3.498 0H2.372c-.222.053-.544.024-.79.12-.243.095-.72.45-.79.756-.035.16.043.357 0 .538-.072.307-.545.44-.572.776-.02.254.238.535.217.776-.025.278-.427.426-.435.697-.008.314.355.466.336.757-.018.273-.312.337-.336.597z" fill="#1B828E"/></svg>
