<svg xmlns="http://www.w3.org/2000/svg" width="512" height="470" viewBox="0 0 512 470"><path d="M37.943 470H144.07V234.15H0L37.943 470zm47.945-86.28c16.75 0 30.33 13.622 30.33 30.428 0 16.807-13.58 30.43-30.33 30.43s-30.33-13.623-30.33-30.43c0-16.806 13.58-30.428 30.33-30.428zm426.004-153.373c1.857-20.206-20.44-43.547-33.18-48.502-31.047-12.076-85.38-1.79-129.87-5.705-5.872-42.31 31.776-76.423 35.073-111.29C387.435 27.657 370.43 6.916 336.52 0H325.14c-10.352.964-8.51 26.16-10.428 37.056-3.395 19.298-9.146 36.68-19.906 49.41-11.377 13.456-23.797 18.997-34.12 32.423-5.76 7.49-9.116 17.89-14.22 27.02-12.19 21.802-38.933 87.88-65.417 98.7-4.703 1.923-13.246 2.43-18.01 1.903v198.76C219.555 457.37 277.41 468.12 344.102 470h54.033c10.65-2.51 26.135-1.123 37.918-5.706 11.652-4.533 34.635-21.51 37.918-36.138 1.706-7.595-2.056-17.025 0-25.678 3.49-14.67 26.167-21.018 27.49-37.09 1-12.107-11.458-25.536-10.425-37.09 1.186-13.27 20.502-20.323 20.855-33.284.406-14.977-17.047-22.273-16.115-36.138.876-13.04 14.972-16.094 16.117-28.53z" fill="#1B828E"/></svg>
