<svg width="32" height="33" viewBox="0 0 32 33" xmlns="http://www.w3.org/2000/svg"><path d="M16 .295c-8.837 0-16 7.164-16 16 0 8.837 7.163 16 16 16s16-7.163 16-16c0-8.836-7.163-16-16-16zm5.34 10.014a2.105 2.105 0 1 1 0 4.21 2.105 2.105 0 0 1 0-4.21zm-10.56 0a2.105 2.105 0 1 1 0 4.21 2.105 2.105 0 0 1 0-4.21zm12.573 10.895c-.09.137-2.224 3.345-7.16 3.345-4.894 0-7.218-3.152-7.314-3.286a1.44 1.44 0 0 1 2.33-1.692c.08.105 1.634 2.1 4.98 2.1 3.336 0 4.73-2.01 4.744-2.032a1.44 1.44 0 0 1 2.418 1.566z" fill="none"/></svg>