<svg width="33" height="30" viewBox="0 0 33 30" xmlns="http://www.w3.org/2000/svg"><path d="M2.988 29.76h6.634V14.945H.617l2.37 14.813zm2.997-5.42c1.047 0 1.895.856 1.895 1.91a1.904 1.904 0 0 1-1.895 1.913A1.904 1.904 0 0 1 4.09 26.25c0-1.055.848-1.91 1.895-1.91zm26.625-9.633c.116-1.27-1.278-2.735-2.073-3.045-1.94-.76-5.337-.113-8.117-.36-.367-2.656 1.986-4.8 2.192-6.99C24.832 1.98 23.77.676 21.65.24h-.71c-.65.06-.533 1.643-.653 2.328-.212 1.212-.572 2.304-1.244 3.103-.71.847-1.488 1.195-2.133 2.038-.36.47-.57 1.124-.89 1.697-.76 1.37-2.432 5.52-4.088 6.2-.293.12-.827.15-1.125.118v12.483c3.532.76 7.148 1.434 11.317 1.553H25.5c.666-.16 1.634-.07 2.37-.36.73-.285 2.165-1.35 2.37-2.27.107-.476-.128-1.07 0-1.61.218-.923 1.636-1.32 1.718-2.33.063-.76-.716-1.604-.65-2.33.073-.834 1.28-1.277 1.302-2.09.026-.94-1.065-1.4-1.007-2.27.055-.82.937-1.01 1.007-1.79z" fill="none"/></svg>