<svg width="30" height="32" viewBox="0 0 30 32" xmlns="http://www.w3.org/2000/svg"><path d="M13.048 6.957c-2.123-2.12-4.79-2.297-6.643-.443-1.855 1.852-1.678 4.523.44 6.643L18.32 24.63a1.003 1.003 0 0 0 1.417-1.416L8.263 11.74c-1.03-1.028-1.684-2.568-.443-3.81 1.24-1.24 2.78-.582 3.808.446L24.385 21.13c3.66 3.664 4.57 5.35 2.392 7.532-2.205 2.203-4.543 1.658-8.063-1.86L4.542 12.626c-2.29-2.29-3.893-6.028-.884-9.034C7.23.02 11.31 3.532 12.472 4.696L25.494 17.72a1.003 1.003 0 0 0 1.417-1.418L13.89 3.28C9.952-.66 5.487-1.08 2.24 2.173c-3.284 3.282-2.93 8.053.885 11.87L17.3 28.216C18.503 29.422 21.083 32 24.05 32c1.334 0 2.747-.523 4.146-1.922 3.983-3.985.3-7.674-2.392-10.366L13.048 6.957z" fill="#FFF" fill-rule="evenodd"/></svg>
