<svg width="36" height="29" viewBox="0 0 36 29" xmlns="http://www.w3.org/2000/svg"><path d="M33.6 19.2v-4.8a2.4 2.4 0 0 0-2.4-2.4h-12V7.2h7.2a2.4 2.4 0 0 0 2.4-2.4V2.4A2.4 2.4 0 0 0 26.4 0H9.6a2.4 2.4 0 0 0-2.4 2.4v2.4a2.4 2.4 0 0 0 2.4 2.4h7.2V12h-12a2.4 2.4 0 0 0-2.4 2.4v4.8A2.4 2.4 0 0 0 0 21.6v4.8a2.4 2.4 0 0 0 2.4 2.4h2.4a2.4 2.4 0 0 0 2.4-2.4v-4.8a2.4 2.4 0 0 0-2.4-2.4v-4.8h12v4.8a2.4 2.4 0 0 0-2.4 2.4v4.8a2.4 2.4 0 0 0 2.4 2.4h2.4a2.4 2.4 0 0 0 2.4-2.4v-4.8a2.4 2.4 0 0 0-2.4-2.4v-4.8h12v4.8a2.4 2.4 0 0 0-2.4 2.4v4.8a2.4 2.4 0 0 0 2.4 2.4h2.4a2.4 2.4 0 0 0 2.4-2.4v-4.8a2.4 2.4 0 0 0-2.4-2.4zM9.6 2.4h16.8v2.4H9.6V2.4zM4.8 24v2.4H2.4v-4.8h2.4V24zm14.4 2.4h-2.4v-4.8h2.4v4.8zm12-2.4v-2.4h2.4v4.8h-2.4V24z" fill="#1B828E" fill-rule="evenodd"/></svg>