<svg width="36" height="36" viewBox="0 0 36 36" xmlns="http://www.w3.org/2000/svg"><path d="M33.75 6.75H22.5v4.5a2.25 2.25 0 0 1-2.25 2.25h1.125a3.376 3.376 0 0 0 3.375-3.375c0-.428-.007-.8-.02-1.125h9.02v24.75H2.25V9h9.02c-.013.326-.02.697-.02 1.125a3.376 3.376 0 0 0 3.375 3.375h1.125a2.25 2.25 0 0 1-2.25-2.25v-4.5H2.25A2.25 2.25 0 0 0 0 9v24.75A2.25 2.25 0 0 0 2.25 36h31.5A2.25 2.25 0 0 0 36 33.75V9a2.25 2.25 0 0 0-2.25-2.25zM30.562 22.5H16.875a1.125 1.125 0 0 0 0 2.25h13.687a1.125 1.125 0 0 0 0-2.25zm0 4.5H16.875a1.125 1.125 0 0 0 0 2.25h13.687a1.125 1.125 0 0 0 0-2.25zm-13.687-6.75h13.687a1.125 1.125 0 0 0 0-2.25H16.875a1.125 1.125 0 0 0 0 2.25zM6.278 18.468a2.718 2.718 0 1 0 5.435 0 2.718 2.718 0 0 0-5.435 0zm2.776 3.805c-2.457 0-4.446 2.668-4.446 5.962 0 3.294 8.892 3.292 8.892 0 0-3.29-1.99-5.962-4.446-5.962zM13.5 11.25a2.25 2.25 0 0 0 2.25 2.25h4.5a2.25 2.25 0 0 0 2.25-2.25v-9A2.25 2.25 0 0 0 20.25 0h-4.5a2.25 2.25 0 0 0-2.25 2.25v9zm6.75 0h-4.5v-9h4.5v9z" fill="#1B828E" fill-rule="evenodd"/></svg>