<svg width="36" height="36" viewBox="0 0 36 36" xmlns="http://www.w3.org/2000/svg"><path d="M15.75 5.625C15.75 2.615 13.136 0 10.125 0 7.115 0 4.5 2.614 4.5 5.625c0 3.01 2.614 5.625 5.625 5.625 3.01 0 5.625-2.614 5.625-5.625zM19.688 27c0-9-4.67-13.5-9.844-13.5C4.67 13.5 0 18 0 27c0 6.165 19.688 6.165 19.688 0zm6.75-11.374c3.01 0 5.625-2.614 5.625-5.625 0-3.01-2.615-5.623-5.626-5.623-3.01 0-5.625 2.615-5.625 5.625 0 3.012 2.615 5.626 5.625 5.626zm-.282 2.25c-1.554 0-3.044.457-4.394 1.272.817 2.196 1.3 4.8 1.3 7.852 0 3.03-2.02 5.39-5.487 6.74C21.875 37.38 36 36.606 36 31.377c0-9-4.67-13.5-9.844-13.5z" fill="#1B828E" fill-rule="evenodd"/></svg>