<svg width="36" height="29" viewBox="0 0 36 29" xmlns="http://www.w3.org/2000/svg"><path d="M35.638 12.343L29.85 1.82c-.013-.027-.044-.037-.06-.06-.292-.45-.84-.678-1.372-.5L19.2 4.33V1.2a1.2 1.2 0 0 0-2.4 0v3.926L6.78 8.46c-.082.026-.144.082-.216.125h-.002c-.164.098-.3.223-.4.38-.01.016-.032.023-.044.042l-5.96 10.5a1.177 1.177 0 0 0-.127.744c-.005.053-.03.098-.03.15 0 2.473 3.733 6 7.2 6s7.2-3.527 7.2-6c0-.153-.033-.3-.09-.433v-.015c-.003-.006-.005-.016-.007-.023a1.233 1.233 0 0 0-.137-.42l-5.24-9.23L16.8 7.658V27.6a1.2 1.2 0 0 0 2.4 0V6.86l7.07-2.353-4.308 7.84a1.185 1.185 0 0 0-.362.853c0 2.472 3.732 6 7.2 6s7.2-3.528 7.2-6a1.2 1.2 0 0 0-.362-.857zM3.09 19.2l4.072-7.17 4.068 7.17H3.09zM24.894 12L28.8 4.89 32.707 12h-7.814z" fill="#1B828E" fill-rule="evenodd"/></svg>