<svg width="30" height="36" viewBox="0 0 30 36" xmlns="http://www.w3.org/2000/svg"><path d="M18 4.5h2.25v2.25H18V4.5zm4.5 0h2.25v2.25H22.5V4.5zM18 9h2.25v2.25H18V9zm4.5 0h2.25v2.25H22.5V9zM18 13.5h2.25v2.25H18V13.5zm4.5 0h2.25v2.25H22.5V13.5zM18 18h2.25v2.25H18V18zm4.5 0h2.25v2.25H22.5V18zM18 22.5h2.25v2.25H18V22.5zm4.5 0h2.25v2.25H22.5V22.5zM27 0H15.75a2.25 2.25 0 0 0-2.25 2.25V9H2.25A2.25 2.25 0 0 0 0 11.25v22.5A2.25 2.25 0 0 0 2.25 36H27a2.25 2.25 0 0 0 2.25-2.25V2.25A2.25 2.25 0 0 0 27 0zM9 33.75H6.75v-4.5H9v4.5zm2.25 0V27H4.5v6.75H2.25v-22.5H13.5v22.5h-2.25zm11.25 0h-2.25v-4.5h2.25v4.5zm4.5 0h-2.25V27H18v6.75h-2.25V2.25H27v31.5zM4.5 13.5h2.25v2.25H4.5V13.5zm4.5 0h2.25v2.25H9V13.5zM4.5 18h2.25v2.25H4.5V18zM9 18h2.25v2.25H9V18zm-4.5 4.5h2.25v2.25H4.5V22.5zm4.5 0h2.25v2.25H9V22.5z" fill="#1B828E" fill-rule="evenodd"/></svg>