<svg width="36" height="37" viewBox="0 0 36 37" xmlns="http://www.w3.org/2000/svg"><path d="M18 .168c-9.922 0-17.965 8.06-17.965 18s8.043 18 17.965 18 17.965-8.06 17.965-18-8.043-18-17.965-18zm5.995 11.266a2.366 2.366 0 0 1 2.363 2.37 2.366 2.366 0 0 1-2.363 2.367 2.366 2.366 0 0 1-2.364-2.367 2.366 2.366 0 0 1 2.365-2.37zm-11.857 0a2.366 2.366 0 0 1 2.363 2.37 2.366 2.366 0 0 1-2.362 2.367 2.366 2.366 0 0 1-2.364-2.367 2.366 2.366 0 0 1 2.364-2.37zM25.843 27.15c-.72.52-1.725.36-2.248-.356-.09-.12-1.837-2.362-5.595-2.362-3.72 0-5.273 2.208-5.337 2.302a1.6 1.6 0 0 1-1.347.733c-.303 0-.61-.085-.884-.263a1.63 1.63 0 0 1-.472-2.25c.1-.152 2.497-3.762 8.04-3.762 5.494 0 8.103 3.547 8.21 3.698.523.726.358 1.74-.367 2.26z" fill="#F98371" fill-rule="evenodd"/></svg>