<svg width="36" height="37" viewBox="0 0 36 37" xmlns="http://www.w3.org/2000/svg"><path d="M18 .168c-9.922 0-17.965 8.06-17.965 18s8.043 18 17.965 18 17.965-8.06 17.965-18-8.043-18-17.965-18zm5.995 11.266a2.366 2.366 0 0 1 2.363 2.37 2.366 2.366 0 0 1-2.363 2.367 2.366 2.366 0 0 1-2.364-2.367 2.366 2.366 0 0 1 2.365-2.37zm-11.857 0a2.366 2.366 0 0 1 2.363 2.37 2.366 2.366 0 0 1-2.362 2.367 2.366 2.366 0 0 1-2.364-2.367 2.366 2.366 0 0 1 2.364-2.37zm14.118 12.26c-.1.152-2.497 3.762-8.04 3.762-5.494 0-8.103-3.547-8.212-3.698a1.622 1.622 0 0 1 .37-2.26c.72-.52 1.723-.36 2.247.356.09.12 1.837 2.362 5.596 2.362 3.744 0 5.31-2.262 5.326-2.285a1.616 1.616 0 0 1 2.236-.478c.75.487.963 1.49.478 2.24z" fill="#AEEA7E" fill-rule="evenodd"/></svg>