<svg width="21" height="24" viewBox="0 0 21 24" xmlns="http://www.w3.org/2000/svg"><title>Fill 1</title><path d="M13.963 12.115H6.487a.89.89 0 0 0 0 1.777h7.476a.89.89 0 0 0 0-1.777zm4.96 8.202l-2.4-2.4-3.177 3.175-3.122-3.12-3.122 3.12-3.176-3.176-2.4 2.4V9.547c0-.82.244-8.02 8.698-8.02s8.698 7.2 8.698 8.02v10.77zM10.222 0C2.154 0 0 6 0 9.547V24l3.926-3.927 3.177 3.177 3.12-3.12 3.123 3.12 3.176-3.177L20.45 24V9.546C20.45 6 18.295 0 10.223 0zM6.94 8.624a1.3 1.3 0 1 0 .003-2.6 1.3 1.3 0 0 0-.002 2.6zm6.526 0a1.3 1.3 0 1 0 0-2.6 1.3 1.3 0 0 0 0 2.6z" fill-rule="evenodd" fill="#CCCCCC"/></svg>
