<svg xmlns="http://www.w3.org/2000/svg" width="500" height="500" viewBox="0 0 500 500"><g fill="#FFF"><path d="M296.6 327.66c-7.72 0-17.39-3.148-27.496-14.264-14.445-15.89-19.293-53.035-19-92.182-2.33.053-4.654.082-6.984.09-.875 43.93-7.33 85.627-25.707 99.17-9.365 6.902-20.732 8.05-32.012 3.23-26.34-11.27-51.52-55.552-57.325-100.817-.992-7.74-1.12-15.27-.422-22.525a150.347 150.347 0 0 1-6.643-3.2c-40.63-20.835-76.678-69.12-83.852-112.317-4.215-25.4 1.508-47.064 16.56-62.65 19.07-19.757 51.636-24.976 87.11-13.97 37.81 11.732 85.33 45.54 94.828 102.217 3.334 19.88 7.1 56.03 7.533 93.064 2.462-.01 4.925-.045 7.38-.104 1.62-36.44 7.072-72.105 12.807-91.662C277.8 62.586 312.3 22.836 353.41 8.006c27.963-10.084 56.11-7.04 79.27 8.566 22.068 14.873 32.914 35.395 31.36 59.346-3.046 47.066-52.503 96.674-98.25 120.26 1.013 9.047.458 18.36-1.796 27.67-5.307 21.887-25.334 93.99-60.254 102.906a28.67 28.67 0 0 1-7.14.906zm-28.608-107.27c-.385 36.097 3.445 69.235 14.22 81.093 9.212 10.127 15.18 8.61 17.146 8.107 17.93-4.578 37.424-48.7 47.416-89.916a61.773 61.773 0 0 0 1.744-15.793c-23.387 8.952-51.457 14.456-80.526 16.51zm-123.03-13.28c-.134 4.384.095 8.9.685 13.524 5.422 42.273 28.533 79.002 46.72 86.775 5.58 2.388 10.192 2 14.534-1.2 11.452-8.438 17.462-43.307 18.52-85.266-28.732-1.27-56.713-5.882-80.46-13.835zm2.663-17.82c22.498 7.95 49.812 12.567 77.95 13.85-.21-29.93-2.728-61.944-7.39-89.77-7.645-45.61-47.002-77.175-82.607-88.226-28.95-8.982-54.79-5.486-69.115 9.357C52.568 48.89 52.36 68.24 54.64 81.94c6.337 38.182 38.347 80.94 74.456 99.455.697.357 1.4.71 2.113 1.06 7.474-24.245 25.21-44.063 51.302-56.077 4.443-2.043 9.707-.1 11.75 4.344 2.045 4.443.102 9.705-4.342 11.75-22.08 10.17-36.61 26.532-42.295 46.817zm238.24-169.46c-9.975 0-19.066 2.182-26.44 4.842-35.353 12.752-66.378 48.887-79.046 92.06-5.698 19.42-10.34 52.585-11.872 85.784 28.176-2.115 55.166-7.61 76.98-16.484-5.935-18.244-20.3-34.262-40.925-44.064-4.418-2.1-6.3-7.385-4.2-11.803a8.857 8.857 0 0 1 11.806-4.2c24.442 11.616 41.718 30.536 49.49 52.347 40.71-22.332 82.25-65.668 84.702-103.537 1.137-17.56-6.8-32.197-23.584-43.51-12.624-8.507-25.36-11.435-36.913-11.435zM67.61 399.25c12.675 0 24.226 3.81 24.226 18.73 0 7.4-4.264 12.557-10.32 15.7 8.41 2.128 14.13 7.96 14.13 17.835 0 14.576-10.09 22.316-28.71 22.316H35.42v-9.083l3.7-.338c1.91-.222 3.253-.897 3.253-3.142v-52.152l-6.393-.334v-9.533h31.63zm-11.553 30.617h8.3c9.646 0 13.57-4.486 13.57-10.43 0-8.074-5.497-9.87-12.784-9.87h-9.086v20.3zm0 33.422H66.6c10.99 0 14.58-5.048 14.58-11.888 0-7.514-5.162-11.55-14.02-11.55H56.057v23.437zM155.764 473.832h-18.17v-7.29c-3.926 5.608-10.768 8.75-18.17 8.75-11.215 0-17.383-6.173-17.383-19.403v-25.91c0-2.355-.897-3.03-2.802-3.14l-3.592-.226v-9.197h19.74v35.553c0 6.84 1.123 12.002 8.3 12.002 7.853 0 12-5.27 12-11.104V430.2c0-2.467-.67-3.252-2.804-3.36l-3.59-.226v-9.197h19.742v43.965c0 2.465.67 3.027 2.803 3.25l3.926.34v8.86zM177.074 405.53v11.888h14.918l-1.127 9.422h-13.79v29.496c0 6.84 2.69 8.86 7.288 8.86 3.03 0 5.834-1.233 7.63-2.355l3.364 8.638c-3.365 2.354-8.975 3.924-14.248 3.924-17.5 0-17.382-10.77-17.382-18.615V426.84h-7.965l1.12-8.19c7.85-.67 10.544-6.73 12.9-13.12h7.29zM216.666 405.53v11.888h14.914l-1.123 9.422h-13.79v29.496c0 6.84 2.69 8.86 7.29 8.86 3.027 0 5.83-1.233 7.623-2.355l3.365 8.638c-3.365 2.354-8.97 3.924-14.244 3.924-17.495 0-17.384-10.77-17.384-18.615V426.84h-7.96l1.118-8.19c7.854-.67 10.543-6.73 12.9-13.12h7.292zM280.93 431.326c0 17.27-18.732 20.19-31.965 20.295.45 7.298 4.262 13.24 13.795 13.24 6.62 0 11.44-3.03 14.133-4.937l4.262 9.086c-1.793 1.567-9.195 6.28-19.738 6.28-19.068 0-26.47-11.668-26.47-28.38 0-16.593 9.31-31.177 27.702-31.177 10.99 0 18.28 5.61 18.28 15.593zm-19.067-6.06c-8.973 0-13.01 8.64-13.348 16.938 8.3-.11 20.078-2.018 20.078-10.654 0-4.152-2.69-6.284-6.73-6.284zM291.883 430.2c0-2.466-.676-3.25-2.803-3.36l-4.713-.334v-9.088h18.957v8.41c2.578-5.605 8.52-10.094 15.928-10.094 3.7 0 7.06.672 10.764 2.467v16.714l-10.434.785v-5.163c0-1.344-.225-2.354-1.12-2.803-1.01-.447-1.792-.557-3.026-.557-6.055 0-10.207 4.818-10.207 11.326v26.02l9.757.45v8.858h-30.06v-8.524l3.702-.334c2.128-.225 3.253-.898 3.253-3.703V430.2zM346.586 426.84h-9.645v-9.422h9.646v-4.262c0-8.97 2.018-20.412 19.4-20.412 4.938 0 11.777 1.797 15.59 3.924l-3.254 8.97c-3.246-1.68-7.51-2.802-10.652-2.802-5.607 0-7.74 3.143-7.74 9.312v5.27h16.6v9.422h-16.6v37.57l9.424.45v8.972h-29.72v-8.525l3.698-.334c2.13-.225 3.254-.898 3.254-3.703v-34.43zM404.807 464.523l6.39.338v8.972h-26.69v-8.525l3.7-.334c2.017-.225 3.25-.898 3.25-3.59v-55.29c0-2.022-1.118-2.58-2.802-2.696l-3.924-.22v-9.312h20.077v70.658zM453.14 463.176c-3.923 5.61-10.767 8.752-18.165 8.752-11.217 0-17.385-6.17-17.385-19.404V429.98c0-2.355-.898-3.03-2.803-3.14l-3.592-.226v-9.197h19.738v32.19c0 6.84 1.123 12 8.303 12 7.85 0 11.996-5.272 11.996-11.105V430.2c0-2.468-.672-3.362-2.803-3.362l-3.59-.225v-9.197h19.74V471.7c0 18.505-9.306 26.134-26.02 26.134-7.065 0-16.374-1.348-21.083-3.703v-15.59l10.652-.897v5.387c0 2.127.56 3.25 2.577 4.033 2.13.787 4.6 1.12 7.965 1.12 10.318 0 14.467-6.278 14.467-16.483v-8.524z"/></g></svg>