<svg width="16" height="15" viewBox="0 0 16 15" xmlns="http://www.w3.org/2000/svg"><path d="M.895 13.775c.082.177.26.29.456.29 1.447 0 2.67-.35 4.06-1.17.674.106 2.006.238 2.59.238 4.412 0 8-2.945 8-6.567C16 2.944 12.412 0 8 0S0 2.944 0 6.566c0 1.707.823 3.357 2.272 4.58a8.74 8.74 0 0 1-1.307 2.092.507.507 0 0 0-.07.537zm.113-7.21c0-3.064 3.137-5.558 6.992-5.558s6.992 2.494 6.992 5.56c0 3.064-3.137 5.558-6.992 5.558-.578 0-2.084-.155-2.593-.253a.522.522 0 0 0-.357.064c-.94.574-1.76.903-2.636 1.042a9.582 9.582 0 0 0 .938-1.807.502.502 0 0 0-.166-.583C1.78 9.523 1.008 8.094 1.008 6.567z" fill="#FFF" fill-rule="evenodd"/></svg>