<svg width="24" height="24" viewBox="0 0 24 24" xmlns="http://www.w3.org/2000/svg"><path d="M18.682 14.13l-1.543.516.534 1.597a1.235 1.235 0 1 1-2.34.785l-.536-1.597-3.183 1.066.535 1.597a1.235 1.235 0 0 1-2.34.785l-.536-1.597-1.543.518a1.234 1.234 0 0 1-.784-2.342l1.544-.517-1.026-3.064-1.543.517a1.234 1.234 0 0 1-.783-2.342l1.543-.516-.535-1.596a1.235 1.235 0 0 1 2.34-.785l.536 1.597 3.183-1.065-.534-1.597a1.235 1.235 0 0 1 2.34-.785l.535 1.597 1.543-.517a1.235 1.235 0 0 1 .784 2.342l-1.543.517 1.025 3.063 1.543-.517a1.235 1.235 0 1 1 .784 2.342zm4.14-5.313C20.367.632 16.82-1.278 8.636 1.177.45 3.634-1.458 7.18.996 15.365 3.453 23.55 7 25.458 15.184 23.004c8.185-2.456 10.095-6.003 7.64-14.187z" fill="#34EA7D" fill-rule="evenodd"/></svg>