<svg width="16" height="15" viewBox="0 0 16 15" xmlns="http://www.w3.org/2000/svg"><path d="M1.186 14.76h3.316V7.352H0l1.186 7.406zm1.498-2.71c.523 0 .948.428.948.955a.952.952 0 0 1-.948.956.952.952 0 0 1-.948-.954c0-.527.425-.955.948-.955zm13.313-4.817c.058-.634-.64-1.367-1.037-1.522-.97-.38-2.668-.055-4.06-.18-.182-1.326.994-2.4 1.097-3.493.11-1.167-.42-1.82-1.48-2.036h-.356c-.322.03-.264.823-.324 1.165-.106.606-.286 1.152-.622 1.55-.356.424-.744.598-1.066 1.02-.18.235-.285.56-.445.848-.38.684-1.217 2.76-2.044 3.1-.148.06-.415.075-.564.06v6.24c1.766.38 3.574.717 5.66.777h1.687c.333-.08.817-.037 1.185-.18.364-.143 1.082-.676 1.185-1.135.053-.24-.064-.535 0-.806.11-.463.818-.66.86-1.167.03-.38-.36-.802-.327-1.165.037-.417.64-.64.652-1.045.012-.47-.533-.7-.504-1.136.027-.41.468-.506.504-.897z" fill="#1B828E" fill-rule="evenodd"/></svg>