<svg width="60" height="84" viewBox="0 0 60 84" xmlns="http://www.w3.org/2000/svg"><g fill="#FFF" fill-rule="evenodd"><path d="M8.15 83.657h11.61V57.735H4l4.15 25.922zm5.244-9.482c1.832 0 3.317 1.498 3.317 3.344 0 1.845-1.484 3.344-3.316 3.344-1.832 0-3.317-1.498-3.317-3.345 0-1.85 1.486-3.345 3.317-3.345zm46.594-16.858c.203-2.22-2.236-4.786-3.628-5.33-3.396-1.327-9.34-.196-14.205-.628-.642-4.65 3.475-8.4 3.836-12.232.386-4.088-1.474-6.367-5.182-7.128h-1.245c-1.133.106-.93 2.876-1.14 4.073-.37 2.12-1 4.032-2.178 5.43-1.244 1.48-2.603 2.088-3.732 3.564-.63.823-.997 1.966-1.555 2.97-1.334 2.395-4.26 9.657-7.156 10.847-.514.21-1.448.266-1.97.21v21.845c6.182 1.327 12.51 2.508 19.806 2.716h5.908c1.165-.276 2.86-.125 4.147-.627 1.275-.5 3.79-2.365 4.148-3.973.188-.834-.223-1.87 0-2.822.382-1.613 2.864-2.31 3.008-4.077.11-1.33-1.254-2.805-1.14-4.075.13-1.46 2.242-2.234 2.28-3.657.045-1.65-1.864-2.45-1.762-3.974.095-1.432 1.64-1.768 1.762-3.135zM51.85 0H40.24v25.922H56L51.85 0zm-5.244 9.483c-1.832 0-3.317-1.498-3.317-3.344 0-1.848 1.484-3.347 3.316-3.347 1.832 0 3.317 1.498 3.317 3.346 0 1.846-1.486 3.343-3.317 3.343zM.012 26.34c-.203 2.22 2.236 4.786 3.628 5.33 3.396 1.327 9.34.196 14.205.628.642 4.65-3.475 8.4-3.836 12.23-.386 4.09 1.474 6.368 5.182 7.13h1.245c1.133-.107.93-2.877 1.14-4.074.37-2.12 1-4.032 2.178-5.43 1.244-1.48 2.603-2.088 3.732-3.563.63-.823.997-1.966 1.555-2.97 1.334-2.395 4.26-9.657 7.156-10.847.514-.21 1.448-.266 1.97-.21V2.72C31.985 1.39 25.657.208 18.36 0h-5.908C11.29.278 9.594.127 8.307.63c-1.275.5-3.79 2.364-4.148 3.972-.188.834.223 1.87 0 2.822-.382 1.613-2.864 2.31-3.008 4.077-.11 1.33 1.254 2.804 1.14 4.074-.13 1.46-2.242 2.234-2.28 3.657-.045 1.65 1.864 2.45 1.762 3.975C1.68 24.637.134 24.973.012 26.34z"/></g></svg>