<svg width="16" height="16" viewBox="0 0 16 16" xmlns="http://www.w3.org/2000/svg"><path d="M11.493 11.993a.72.72 0 0 1-1.002-.16c-.04-.052-.815-1.05-2.49-1.05-1.656 0-2.347.982-2.376 1.024a.71.71 0 0 1-.6.326.722.722 0 0 1-.603-1.116c.045-.07 1.11-1.673 3.58-1.673 2.447 0 3.61 1.577 3.658 1.643a.72.72 0 0 1-.164 1.006M5.39 5.007a1.053 1.053 0 1 1 0 2.105 1.053 1.053 0 0 1 0-2.105m5.28 0a1.052 1.052 0 1 1 0 2.105 1.052 1.052 0 0 1 0-2.105M8 0a8 8 0 1 0 0 16A8 8 0 0 0 8 0" fill="#F45D6E" fill-rule="evenodd"/></svg>