<svg width="64" height="65" viewBox="0 0 64 65" xmlns="http://www.w3.org/2000/svg"><title>BFSmileyHappyActive</title><g transform="translate(.043 .54)" fill="none" fill-rule="evenodd"><ellipse cx="32.062" cy="31.774" rx="21.957" ry="21.959"/><path d="M32.016 0C14.376 0 .078 14.3.078 31.94s14.3 31.94 31.938 31.94c17.64 0 31.938-14.3 31.938-31.94S49.654 0 32.016 0zm10.657 19.99a4.202 4.202 0 1 1 0 8.406 4.202 4.202 0 0 1 0-8.405zm-21.08 0a4.202 4.202 0 1 1 0 8.406 4.202 4.202 0 0 1 0-8.405zm25.1 21.754c-.177.272-4.44 6.677-14.294 6.677-9.767 0-14.406-6.293-14.598-6.56a2.874 2.874 0 0 1 4.65-3.38c.16.212 3.266 4.192 9.947 4.192 6.655 0 9.442-4.014 9.468-4.054a2.875 2.875 0 0 1 4.825 3.126z" fill="#21EB78"/></g></svg>
